<svg width="16383" height="15308.7" xmlns="http://www.w3.org/2000/svg">
<g>

 <path
        fill="#FFF"
        stroke="#010101"
        strokeMiterlimit="10"
        strokeWidth="2"
        d="M8302.8 9519.7c5.6-28.8 32.9-74.2 66.3-82.6 143.3-53.8 375.3-41.3 508 4.2 44.1 24.6 66.3 45.5 66.3 70-5.6 226.8-49.6 469.9-143.3 668-154.5 103-353-4.2-403.1-53.8-72.4-185.1-89.1-374.8-94.2-605.8h0zM14142.4"
      ></path>

 <path
        fill="#FFF"
        stroke="#f00"
        strokeMiterlimit="10"
        strokeWidth="2"
        d="6773.9c-19-33.9-94.6-84.4-113.7-127.1-9.3-29.7-9.3-71.9 0-114.1 32.9-160.5 151.7-224.1 227.3-275.1 61.7-33.9 113.7-46.4 175.4-21.3 75.6 29.7 189.3 131.3 237.1 131.3 42.7 0 85.4 40.2 128 8.4s71 12.5 99.3 29.7c38 16.7 71 59.4 99.3 93.2 14.4 12.5 9.3 80.3-9.3 118.3-28.3 63.6-80.7 105.8-90 122.5-4.6 8.4 0 33.9 14.4 50.6 14.4 25.5 9.3 80.3-4.6 105.8-23.7 46.4-180 152.2-284.4 186-57.1 25.5-151.7 33.9-194.4 8.4-61.7-50.6-308-46.4-293.6-232.4-.6-24.9 9.2-62.9 9.2-84.2h0z"
      ></path>
     
</g>
</svg>