<?xml version="1.0" encoding="utf-8"?>
<!-- Generator: Adobe Illustrator 18.1.1, SVG Export Plug-In . SVG Version: 6.00 Build 0)  -->
<svg version="1.1" id="Layer_1" xmlns="http://www.w3.org/2000/svg" xmlns:xlink="http://www.w3.org/1999/xlink" x="0px" y="0px"
	 viewBox="0 0 16383 15308.7" enable-background="new 0 0 16383 15308.7" xml:space="preserve">
<path fill="#D0C9A3" stroke="#010101" stroke-width="2" stroke-miterlimit="22.926" d="M4711.8,4635.7l-97.4,506.6l-369.3-49.6
	l-5.6-541.8c71.9-168.9,71.9-298.3,77-456.9c5.1-44.5-30.6-203.7,46.4-203.7c154,5.1,102.5,387.4,174.4,451.8L4711.8,4635.7
	L4711.8,4635.7z"/>
<path fill="#F2ECBE" stroke="#010101" stroke-width="2" stroke-miterlimit="22.926" d="M4460.4,5365.5l-328.4-19.9
	c-66.8-347.5-138.7-908.8,117.8-1157.4c5.1,0,133.6-154,97.4,74.7c0,25.1-30.6,302.9-30.6,392.5c5.1,228.7,25.5,392.5,97.4,407.3
	c46.4,9.7,92.3-148.9,82.1-288.1c-20.4-581.3-117.8-690.3-92.3-754.8c97.4-49.6,225.9,198.5,251.4,268.1
	c92.3,243.5,122.9,486.6,143.8,814.6c10.2,109-10.2,198.5-35.7,273.2c-25.5-9.7-77,59.8-102.5,49.6L4460.4,5365.5z"/>
<path fill="#FFFFFF" stroke="#010101" stroke-width="2" stroke-miterlimit="10" d="M4746.1,5314.9c-5.1-15.8-15.3-47.3-85.8-26.4
	c-120.6,36.6-171.2-121.1-342.4-131.7c-302,84-357.2,389.2-377.6,520.5c-30.2,205,80.7,278.8,166.1,294.6
	c171.2,10.7,276.9-58,312.2-131.7c25.1,47.3,90.5,179.1,226.4,179.1c130.8-26.4,312.2-162.8,286.7-252.4
	C4922.4,5567.3,4791.6,5441.1,4746.1,5314.9z"/>
<path fill="#FFFFFF" stroke="#010101" stroke-width="2" stroke-miterlimit="10" d="M4494.7,5583c-70.5,73.8-100.7,173.5-75.6,257.9
	 M4278,5477.7c85.8,36.6,125.7,126.2,135.9,252.4"/>
<path fill="#D0C9A3" stroke="#010101" stroke-width="2" stroke-miterlimit="22.926" d="M5621.5,5017.5l-360-52.4l-39.9-341.9
	c79.8-161.4,79.8-313.6,85.8-465.8c0-42.7,17.2-152.2,91.4-156.8c34.3,0,85.8,23.7,103,71.4c45.5,147.5,137.3,341.9,177.2,375.3
	l68.7,256.5L5621.5,5017.5z"/>
<path fill="#F2ECBE" stroke="#010101" stroke-width="2" stroke-miterlimit="22.926" d="M5495.8,5283.8l-399.9,118.8l-5.6-228.2
	c-45.5-152.2-108.6-266.3-131.3-451.4c-79.8-261.2,74.2-774.7,199.9-574.8c5.6,4.6,0,19,0,28.3c0,80.7,11.6,142.4,0,218.5
	c-11.6,80.7,5.6,123.4,57.1,228.2c17.2,33.4,28.8,66.3,45.5,123.4c91.4,166.1,177.2,256.5,257,199.5l28.8-204.1
	c17.2-95.1,17.2-80.7,68.7-166.1c39.9-61.7,62.6-128.5,68.7-199.5l-34.3-218.5c11.6-52.4,22.7-99.7,79.8-109.5
	c91.4,23.7,148.4,99.7,171.2,147.5c45.5,152.2,68.7,261.2,57.1,418c-11.6,99.7-34.3,190.2-68.7,275.6
	c-51.5,128.5-51.5,114.1-45.5,256.5v223.1l-120.1,9.7L5495.8,5283.8z"/>
<path fill="#FFFFFF" stroke="#020202" stroke-width="2" stroke-miterlimit="10" d="M5851.1,5378.4c-19.9-43.6-120.1-34.8-140.1-43.6
	c-39.9-13-70-26.4-135-65.4c-34.8-21.8-75.2-21.8-115-21.8c-30.2,0-54.7,26.4-84.9,34.8l-210.1,65.4c-34.8,17.6-64.9,34.8-84.9,74.2
	l-39.9,96l-14.8,34.8c-25.1,34.8-39.9,91.9-45,135.5c-10.2,43.6-10.2,65.4,5.1,109.5c14.8,48.2,34.8,87.2,54.7,126.6
	c25.1,48.2,79.8,74.2,109.9,78.9c59.8,4.2,99.7-4.2,164.7-26.4l84.9-30.6c45,48.2,54.7,61.2,79.8,78.9c95.1,70,160,21.8,214.8-48.2
	H5840c19.9-4.2,50.1-26.4,79.8-61.2c59.8-61.2,59.8-70,64.9-148.4c0-70-10.2-70-50.1-131.3c-45-70-50.1-65.4-59.8-148.4l-5.1-61.2
	L5851.1,5378.4L5851.1,5378.4z"/>
<path fill="#FFFFFF" stroke="#020202" stroke-width="2" stroke-miterlimit="10" d="M5570.9,5649.4c-54.7,48.2-160,179.1-45,257.9
	c14.8,13,34.8,17.6,45,21.8l124.8,48.2"/>
<path fill="#FFFFFF" stroke="#020202" stroke-width="2" stroke-miterlimit="10" d="M5346.4,5544.5c64.9,39.4,90,100.7,120.2,153.1
	c39.9,70-10.2,187.9-64.9,244.9"/>
<path fill="#F2ECBE" stroke="#020202" stroke-width="2" stroke-miterlimit="10" d="M6503.4,5388.2l-142.9,47.3l-149.8-43.6
	c-52.4-123.9-52.4-189.3-48.7-342.4c0-113.2,87.2-357.2,73.3-459.3c7-193-20.9-328-13.9-506.6c0-123.9,104.8-105.8,149.8-7.4
	C6520.5,4408,6513.6,5034.7,6503.4,5388.2L6503.4,5388.2z"/>
<path id="fdXMLID_41_" fill="#FFFFFF" stroke="#020202" stroke-width="2" stroke-miterlimit="10" d="M6505.2,5349.7
	c18.6,89.1,14.8,129.9,48.2,200.9c174.9,241.7,129.9,341.9-103.9,482.9c-33.4,18.6-55.7,44.5-111.3,37.1
	c-59.4-18.6-96.5-74.2-96.5-74.2c-7.4-3.7-7.4,26-29.7,26c-137.3-33.4-219.4-200.9-171.2-371.6c52-96.5,133.6-289.9,141-304.8
	c14.8-40.8,89.1-74.2,152.6-74.2c55.7-3.7,96.5,11.1,137.3,33.4C6486.7,5312.6,6497.8,5331.1,6505.2,5349.7L6505.2,5349.7z"/>
<path fill="#FFFFFF" stroke="#010101" stroke-width="2" stroke-miterlimit="10" d="M6251.9,5898.5c38.5-108.1,9.7-197.6-96-284.8"/>
<path fill="#F2ECBE" stroke="#020202" stroke-width="2" stroke-miterlimit="10" d="M6991.4,5574.7l217.6-84.9
	c19.5-3.7,29.2-38.5,33.9-58c43.6-119.7-130.8-444-149.8-687c-9.7-92.8-24.1-196.7-67.7-274.2c-87.2-212.5-207.8-169.8-217.6-54.3
	c0,26.9,9.7,61.7,9.7,84.9c33.9,374.4-72.4,779.8-14.4,899.5c14.4,31.1,24.1,65.4,38.5,84.9L6991.4,5574.7z"/>
<path id="euXMLID_30_" fill="#FFFFFF" stroke="#020202" stroke-width="2" stroke-miterlimit="10" d="M7464.6,5952.3
	c10.2,97.4-71,97.4-157.3,93.2c-45.5,24.1-81.2,32.5-162.4,36.6c-50.6-4.2-157.3-4.2-182.3-44.5c-30.6,28.3-106.7,12.1-126.6-4.2
	c-172.6-89.1-136.9-360.9-35.7-551.6c10.2-12.1,45.5-89.1,65.9-93.2c121.5-36.6,207.8-40.4,344.7,0c15.3,4.2,35.7,28.3,40.4,48.7
	C7322.6,5648,7378.3,5717.1,7464.6,5952.3z"/>
<path fill="#F2ECBE" stroke="#020202" stroke-width="2" stroke-miterlimit="10" d="M7820.8,5564.9L7639,5454.1
	c-24.1-73.8-44.5-648.5,97-993.7c149.8-328.4,242.6-94.2,258.9,4.2c16.2,172.6,16.2,336.8,64.5,517.2
	c40.4,143.8,60.8,377.6,20.4,574.8L7820.8,5564.9z"/>
<path fill="#FFFFFF" stroke="#020202" stroke-width="2" stroke-miterlimit="10" d="M8087.1,5477.3c3.7,7,0,13.5,0,17.2
	c39,187,114.1,323.3,114.1,401.3c0,64.5,3.7,231.5-167.5,190.7c-14.4-10.2-21.3-13.5-32-7c-14.4,20.4-114.1,47.8-245.4-17.2
	c-17.6-20.4-35.7-10.2-46.4-10.2c-146.1-58-217.1-98.8-170.7-278.8c71-296,124.8-466.2,327.5-438.8
	c92.8,13.5,149.4,68.2,202.7,122.5C8073.2,5460.1,8083.9,5470.3,8087.1,5477.3L8087.1,5477.3z"/>
<path fill="#FFFFFF" stroke="#020202" stroke-width="2" stroke-miterlimit="10" d="M8025.4,6097.5c-5.6-63.1-5.6-105.8,2.8-156.3
	 M7801.4,6059.4c-2.8-25.5-2.8-101.1,0-126.6"/>
<path fill="#D0C9A3" stroke="#010101" stroke-width="2" stroke-miterlimit="22.926" d="M11746.8,4692.8l97.4,506.6l369.3-49.6
	l5.1-541.4c-71.9-168.9-71.9-298.3-77-456.9c-5.1-44.5,30.6-203.7-46.4-203.7c-154,5.1-102.5,387.4-174.4,451.8L11746.8,4692.8
	L11746.8,4692.8z"/>
<path fill="#F2ECBE" stroke="#010101" stroke-width="2" stroke-miterlimit="22.926" d="M11998.2,5422.5l328.4-19.9
	c66.8-347.5,138.7-908.8-117.8-1157.4c-5.1,0-133.6-154-97.4,74.7c0,25.1,30.6,302.9,30.6,392.5c-5.1,228.7-25.5,392.5-97.4,407.3
	c-46.4,9.7-92.3-148.9-82.1-288.1c20.4-581.3,117.8-690.3,92.3-754.8c-97.4-49.6-225.9,198.5-251.4,268.1
	c-92.3,243.5-122.9,486.6-143.8,814.6c-10.2,109,10.2,198.5,35.7,273.2c25.5-9.7,77,59.8,102.5,49.6L11998.2,5422.5z"/>
<path fill="#FFFFFF" stroke="#010101" stroke-width="2" stroke-miterlimit="10" d="M11712,5372c5.1-15.8,15.3-47.3,85.8-26.4
	c120.6,36.6,171.2-121.1,342.4-131.7c302,84,357.2,389.2,377.6,520.5c30.2,205-80.7,278.8-166.1,294.6
	c-171.2,10.7-276.9-58-312.2-131.7c-25.1,47.3-90.5,179.1-226.4,179.1c-130.8-26.4-312.2-162.8-286.7-252.4
	C11536.2,5624.3,11666.6,5498.1,11712,5372z"/>
<path fill="#FFFFFF" stroke="#010101" stroke-width="2" stroke-miterlimit="10" d="M12039.1,5897.5c25.1-84-5.1-184.2-75.6-257.9
	 M12044.2,5787.1c10.2-126.2,50.1-215.7,135.9-252.4"/>
<path fill="#D0C9A3" stroke="#010101" stroke-width="2" stroke-miterlimit="22.926" d="M10836.6,5074.6l360-52.4l39.9-341.9
	c-79.8-161.4-79.8-313.6-85.8-465.8c0-42.7-17.2-152.2-91.4-156.8c-34.3,0-85.8,23.7-103,71.4c-45.5,147.5-137.3,341.9-177.2,375.3
	l-68.7,256.5L10836.6,5074.6z"/>
<path fill="#F2ECBE" stroke="#010101" stroke-width="2" stroke-miterlimit="22.926" d="M10962.4,5340.9l399.9,118.8l5.6-228.2
	c45.5-152.2,108.6-266.3,131.3-451.4c79.8-261.2-74.2-774.7-199.9-574.8c-5.6,4.6,0,19,0,28.3c0,80.7-11.6,142.4,0,218.5
	c11.6,80.7-5.6,123.4-57.1,228.2c-17.2,33.4-28.8,66.3-45.5,123.4c-91.4,166.1-177.2,256.5-257,199.5l-28.8-204.1
	c-17.2-95.1-17.2-80.7-68.7-166.1c-39.9-61.7-62.6-128.5-68.7-199.5l34.3-218.5c-11.6-52.4-22.7-99.7-79.8-109.5
	c-91.4,23.7-148.4,99.7-171.2,147.5c-45.5,152.2-68.7,261.2-57.1,418c11.6,99.7,34.3,190.2,68.7,275.6
	c51.5,128.5,51.5,114.1,45.5,256.5v223.1l120.1,9.7L10962.4,5340.9z"/>
<path fill="#FFFFFF" stroke="#020202" stroke-width="2" stroke-miterlimit="10" d="M10607.5,5435.5c19.9-43.6,120.2-34.8,140.1-43.6
	c39.9-13,70-26.4,135-65.4c34.8-21.8,75.2-21.8,115-21.8c30.2,0,54.7,26.4,84.9,34.8l210.1,65.4c34.8,17.6,64.9,34.8,84.9,74.2
	l39.9,96l14.8,34.8c25,34.8,39.9,91.9,45,135.5c10.2,43.6,10.2,65.4-5.1,109.5c-14.8,48.2-34.8,87.2-54.7,126.6
	c-25,48.2-79.8,74.2-109.9,78.9c-59.8,4.2-99.7-4.2-164.7-26.4l-84.9-30.6c-45,48.2-54.7,61.2-79.8,78.9
	c-95.1,70-160,21.8-214.8-48.2h-144.7c-19.9-4.2-50.1-26.4-79.8-61.2c-59.8-61.2-59.8-70-64.9-148.4c0-70,10.2-70,50.1-131.3
	c45-70,50.1-65.4,59.8-148.4l5.1-61.2L10607.5,5435.5L10607.5,5435.5z"/>
<path fill="#FFFFFF" stroke="#020202" stroke-width="2" stroke-miterlimit="10" d="M10887.2,5706.4c54.7,48.2,160,179.1,45,257.9
	c-14.8,13-34.8,17.6-45,21.8l-124.8,48.2"/>
<path fill="#FFFFFF" stroke="#020202" stroke-width="2" stroke-miterlimit="10" d="M11112.2,5601.6c-64.9,39.4-90,100.7-120.1,153.1
	c-39.9,70,10.2,187.9,64.9,244.9"/>
<path fill="#F2ECBE" stroke="#020202" stroke-width="2" stroke-miterlimit="10" d="M9954.8,5446.2l142.9,45.9l149.8-42.2
	c52.4-120.1,52.4-183.2,48.7-331.7c0-109.5-87.2-345.6-73.3-444.4c-7-187,20.9-317.3,13.9-490.3c0-120.2-104.8-102.5-149.8-7
	C9937.6,4497.5,9944.6,5104.3,9954.8,5446.2L9954.8,5446.2z"/>
<path id="fdXMLID_1_" fill="#FFFFFF" stroke="#020202" stroke-width="2" stroke-miterlimit="10" d="M9952.9,5409.1
	c-18.6,86.3-14.8,125.7-48.2,194.4c-174.9,233.8-129.9,330.8,103.9,467.6c33.4,18.1,55.7,43.1,111.3,36.2
	c59.4-18.1,96.5-71.9,96.5-71.9c7.4-3.7,7.4,25.1,29.7,25.1c137.3-32.5,219.4-194.4,171.2-360c-52-93.7-133.6-280.7-141-295
	c-14.8-39.4-89.1-71.9-152.6-71.9c-55.7-3.7-96.5,10.7-137.3,32.5C9971.5,5372.9,9960.3,5391,9952.9,5409.1L9952.9,5409.1z"/>
<path fill="#FFFFFF" stroke="#010101" stroke-width="2" stroke-miterlimit="10" d="M10206.2,5974.6c-38.5-90-9.7-164.7,96-237.1"/>
<path fill="#F2ECBE" stroke="#020202" stroke-width="2" stroke-miterlimit="10" d="M9466.7,5610.9l-217.6-84.9
	c-19.5-3.7-29.2-38.5-33.9-58c-43.6-119.7,130.8-444,149.8-687c9.7-92.8,24.1-196.7,67.7-274.2c87.2-212.5,207.8-169.8,217.6-54.3
	c0,26.9-9.7,61.7-9.7,84.9c-33.9,374.4,72.4,779.8,14.4,899.5c-14.4,31.1-24.1,65.4-38.5,84.9L9466.7,5610.9z"/>
<path id="euXMLID_1_" fill="#FFFFFF" stroke="#020202" stroke-width="2" stroke-miterlimit="10" d="M8993.6,5988.5
	c-10.2,97.4,71,97.4,157.3,93.2c45.5,24.1,81.2,32.5,162.4,36.6c50.6-4.2,157.3-4.2,182.3-44.5c30.6,28.3,106.7,12.1,126.6-4.2
	c172.6-89.1,136.9-360.9,35.7-551.6c-10.2-12.1-45.5-89.1-65.9-93.2c-121.5-36.6-207.8-40.4-344.7,0c-15.3,4.2-35.7,28.3-40.4,48.7
	C9135.5,5684.2,9079.9,5753.3,8993.6,5988.5z"/>
<path fill="#F2ECBE" stroke="#020202" stroke-width="2" stroke-miterlimit="10" d="M8637.3,5601.1l181.8-110.9
	c24.1-73.8,44.5-648.5-97-993.7c-149.8-328.4-242.6-94.2-258.9,4.2c-16.2,172.6-16.2,336.8-64.5,517.2
	c-40.4,143.8-60.8,377.6-20.4,574.8L8637.3,5601.1z"/>
<path fill="#FFFFFF" stroke="#020202" stroke-width="2" stroke-miterlimit="10" d="M8370.6,5513.4c-3.7,7,0,13.5,0,17.2
	c-39,187-114.1,323.3-114.1,401.3c0,64.5-3.7,231.5,167.5,190.7c14.4-10.2,21.3-13.5,32-7c14.4,20.4,114.1,47.8,245.4-17.2
	c17.6-20.4,35.7-10.2,46.4-10.2c146.1-58,217.1-98.8,170.7-278.8c-71-296-124.8-466.2-327.5-438.8
	c-92.8,13.5-149.4,68.2-202.7,122.5C8384.9,5496.7,8374.3,5506.9,8370.6,5513.4L8370.6,5513.4z"/>
<path fill="#FFFFFF" stroke="#020202" stroke-width="2" stroke-miterlimit="10" d="M8429.9,5968.1c8.4,50.6,8.4,92.8,2.8,156.3
	 M8656.3,5959.7c2.8,25.5,2.8,101.1,0,126.6"/>
<path fill="#F2ECBE" stroke="#020202" stroke-width="2" stroke-miterlimit="10" d="M4975.3,10104.2c31.1,62.6,36.6,354.4,20.9,439.8
	c-5.1,157.3-281.1,852.2-463.4,780.7c-46.9-18.1,67.7-318.7,83.5-372.5c72.8-273.7-5.1-439.8-26-462
	c-57.1,8.8-57.1,188.3-72.8,233.3c-5.1,31.5-93.7,152.6-98.8,246.8c-10.2,49.2-46.9,282.5-135.5,278.3
	c-57.1-8.8-88.6-129.9-114.6-497.8c-15.8-215.2,0-430.5,41.8-641.6l135.5-67.3L4975.3,10104.2z"/>
<path fill="#FFFFFF" stroke="#020202" stroke-width="2" stroke-miterlimit="10" d="M4921.9,9458c32-9.3,68.7-13.9,100.7,0
	c52.9,42.2,238,196.2,180,317.8c-15.8,28.3-127.1,294.6-201.3,331.7c-116.4,74.7-270,98.3-317.3,98.3c-90-4.6-169.3-74.7-275.1-84
	c-79.3,0-174.9,18.6-201.3-9.3c-52.9-84-127.1-285.3-84.9-430c37.1-98.3,201.3-341,391.5-261.6c68.7,37.6,127.1,121.5,201.3,177.7
	C4757.7,9546.6,4842.6,9495.6,4921.9,9458z"/>
<path fill="#FFFFFF" stroke="#020202" stroke-width="2" stroke-miterlimit="10" d="M4715.5,9582.8c-42.2,46.9-74.2,126.2-68.7,196.2
	 M4752.6,9821.2c-95.1-84-232.9-23.2-259.3-9.3"/>
<path fill="#F2ECBE" stroke="#010101" stroke-width="2" stroke-miterlimit="22.926" d="M6220.8,10054.5
	c29.7,63.6,69.6,122.5,84.4,186.5c39.9,152.2,54.7,490.3,34.8,657.3c-29.7,299.2-174,568.7-253.3,353
	c-19.9-58.9-25.1-270-25.1-299.2c0-73.8-14.8-166.5-49.6-259.8c-54.7-142.4-99.3-269.5-179.1-230.6c-25.1,9.7-25.1,206-44.5,441.6
	c-5.1,68.7-25.1,225.5-44.5,279.7c-14.8,49.2-59.8,166.5-119.2,137.3c-54.7-14.8-79.3-137.3-104.4-534.9
	c0-78.4-19.9-161.9-29.7-245.4c-5.1-63.6-29.7-245.4-5.1-377.6l148.9-127.6L6220.8,10054.5z"/>
<path fill="#FFFFFF" stroke="#020202" stroke-width="2" stroke-miterlimit="10" d="M6097.9,9455.7c-98.8,4.6-244.5,97-276,119.2
	c-10.2,8.8-98.8-110.4-244.9-92.8c-83.5,17.6-114.6,101.6-124.8,128c-67.7-31.1-150.8-17.6-187.4,52.9
	c-20.9,52.9-20.9,180.9,20.9,251.4c20.9,44.1,130.4,176.3,197.6,238c15.8,17.6,124.8-4.6,187.4,0c197.6,8.8,468.5,48.7,593.3-79.3
	c15.8-17.6,31.1-57.5,36.6-84c26-141,41.8-251.4,10.2-405.9C6296,9526.2,6223.2,9438,6097.9,9455.7z"/>
<path fill="#FFFFFF" stroke="#020202" stroke-width="2" stroke-miterlimit="10" d="M5796.4,9830.5c-15.8-84-31.1-220.8,36.6-260.2
	 M5468.4,9795.2c-26-61.7-31.1-154.5-15.8-185.1"/>
<path fill="#F2ECBE" stroke="#010101" stroke-width="2" stroke-miterlimit="10" d="M6727,10018.4l-119.7,71.4
	c-77,151.7-34.8,686.6-23.2,888.8c15.3,320.1,150.3,341,173.5,345.1c165.6,25.1,215.7-1132.8,127.1-1255.3L6727,10018.4z"/>
<path fill="#FFFFFF" stroke="#020202" stroke-width="2" stroke-miterlimit="10" d="M7013.2,9532.2c85.8,72.4-85.8,362.8-89.5,449.5
	c-3.7,45-3.7,86.3-22.3,128c-78.4,58.9-242.2,41.3-294.1,7c-48.2-52-29.7-183.2-48.2-217.6c-63.1-117.4-163.8-186.5-74.2-317.8
	c71-90,201.3-204.1,271.8-204.1C6823.5,9376.3,6987.2,9494.2,7013.2,9532.2L7013.2,9532.2z"/>
<path fill="#F2ECBE" stroke="#010101" stroke-width="2" stroke-miterlimit="10" d="M7305.9,10007.7l-103,141
	c-87.7,432.8,15.3,766.8,38,964.4c84,442.1,114.1,254.2,175.4-32.9c76.1-329.4,72.4-729.2,45.9-988.1L7305.9,10007.7z"/>
<path fill="#FFFFFF" stroke="#010101" stroke-width="2" stroke-miterlimit="10" d="M7454.8,10112.5c-26.4,57.5-225,68.2-251.4,50.6
	c-3.7-3.7-7.4-10.7-11.1-14.4c-63.6-136.8-221.3-594.3-22.7-698.6c67.7-3.7,157.7-14.4,217.6-32.5c37.6-7,75.2-32.5,97.4-18.1
	c45,14.4,90,100.7,90,154.9C7552.7,9748.8,7470.1,10119.5,7454.8,10112.5z"/>
<path fill="#F2ECBE" stroke="#020202" stroke-width="2" stroke-miterlimit="10" d="M8180.4,10115.3
	c-64.9-13.5-130.4-22.3-195.3-31.1c-77,31.1-160,58-237.1,84.9c0,116,0,214.3,12.1,326.1c6,66.8,17.6,80.3,23.7,129.4
	c83,214.3,83,379.5,77,602.6c-12.1,147.5,171.6,196.7,219.4-31.1C8174.8,10775.9,8228.1,10298.1,8180.4,10115.3L8180.4,10115.3z"/>
<path fill="#FFFFFF" stroke="#010101" stroke-width="2" stroke-miterlimit="10" d="M8257.8,9519.7c-5.6,231-22.3,420.3-93.7,605.9
	c-49.6,49.6-248.2,156.8-403.1,53.8c-93.7-197.6-138.2-441.2-143.3-668c0-24.6,22.3-45.5,66.3-70c132.7-45.5,364.2-57.5,508-4.2
	C8224.9,9445.4,8252.3,9490.9,8257.8,9519.7L8257.8,9519.7z"/>
<path fill="#F2ECBE" stroke="#020202" stroke-width="2" stroke-miterlimit="10" d="M12161.5,9972.4l135.5,67.3
	c41.8,210.6,57.1,426.3,41.8,641.6c-26,367.9-57.1,488.9-114.6,497.8c-88.6,4.6-124.8-228.7-135.5-278.3
	c-5.1-94.2-93.7-215.2-98.8-246.8c-15.8-45-15.8-224.5-72.8-233.3c-20.9,22.3-98.8,188.3-26,462c15.8,53.8,130.4,354.4,83.5,372.5
	c-182.3,71.9-458.3-623.5-463.4-780.7c-15.8-85.4-10.2-376.7,20.9-439.8L12161.5,9972.4z"/>
<path fill="#FFFFFF" stroke="#020202" stroke-width="2" stroke-miterlimit="10" d="M11791.8,9529.4
	c74.2-56.1,132.2-140.1,201.3-177.7c190.7-79.3,354.4,163.8,391.5,261.6c42.2,144.7-32,346.1-84.9,430
	c-26.4,27.8-121.5,9.3-201.3,9.3c-105.8,9.3-185.1,79.3-275.1,84c-47.8,0-201.3-23.2-317.3-98.3c-74.2-37.6-185.1-303.9-201.3-331.7
	c-58.5-121.5,127.1-275.6,180-317.8c32-13.9,68.7-9.3,100.7,0C11664.7,9426.4,11749.6,9477.9,11791.8,9529.4z"/>
<path fill="#FFFFFF" stroke="#020202" stroke-width="2" stroke-miterlimit="10" d="M11860.9,9710.3c5.1-70-26.4-149.4-68.7-196.2
	 M12014,9742.8c-26.4-13.9-164.2-74.7-259.3,9.3"/>
<path fill="#F2ECBE" stroke="#010101" stroke-width="2" stroke-miterlimit="22.926" d="M10877.9,9965.9l148.9,127.6
	c25,132.7,0,314.1-5.1,377.6c-9.7,83.5-29.7,166.5-29.7,245.4c-25,397.1-49.6,520-104.4,534.9c-59.8,29.2-104.4-88.1-119.2-137.3
	c-19.9-53.8-39.9-211.1-44.5-279.7c-19.9-235.7-19.9-431.4-44.5-441.6c-79.3-39.4-124.3,88.1-179.1,230.6
	c-34.8,93.2-49.6,186.5-49.6,259.8c0,29.2-5.1,240.3-25.1,299.2c-79.3,215.7-223.6-53.8-253.3-353c-19.9-166.5-5.1-505.2,34.8-657.3
	c14.8-63.6,54.7-122.5,84.4-186.5L10877.9,9965.9z"/>
<path fill="#FFFFFF" stroke="#020202" stroke-width="2" stroke-miterlimit="10" d="M10200.2,9514.6
	c-31.1,154.5-15.8,264.9,10.2,405.9c5.1,26.4,20.9,66.3,36.6,84c124.8,128,395.7,88.1,593.3,79.3c62.6-4.6,171.6,17.6,187.4,0
	c67.7-61.7,177.2-193.9,197.6-238c41.8-70.5,41.8-198.5,20.9-251.4c-36.6-70.5-119.7-84-187.4-52.9c-10.7-26.4-41.8-110.4-124.8-128
	c-145.7-17.6-234.3,101.6-244.9,92.8c-31.1-22.3-177.2-114.6-276-119.2C10288.8,9368.9,10215.9,9457.5,10200.2,9514.6z"/>
<path fill="#FFFFFF" stroke="#020202" stroke-width="2" stroke-miterlimit="10" d="M10679.4,9501.6c67.7,39.9,52,176.3,36.6,260.2
	 M11059.3,9541c15.8,31.1,10.2,123.4-15.8,185.1"/>
<path fill="#F2ECBE" stroke="#010101" stroke-width="2" stroke-miterlimit="10" d="M9675.5,10068.9
	c-88.6,122-38.5,1280.4,127.1,1255.3c23.2-4.2,158.2-25,173.5-345.1c11.6-202.3,53.8-737.1-23.2-888.8l-119.7-71.4L9675.5,10068.9z"
	/>
<path fill="#FFFFFF" stroke="#020202" stroke-width="2" stroke-miterlimit="10" d="M9547.5,9532.2c26-38,189.7-155.4,257-155.4
	c71,0,201.3,114.1,271.8,204.1c89.5,131.3-11.1,200.4-74.2,317.8c-18.6,34.8,0,166.1-48.2,217.6c-52,34.8-216.2,52-294.1-7
	c-18.6-41.3-18.6-83-22.3-128C9632.8,9895,9461.6,9604.6,9547.5,9532.2L9547.5,9532.2z"/>
<path fill="#F2ECBE" stroke="#010101" stroke-width="2" stroke-miterlimit="10" d="M9098.4,10092.1
	c-26.4,258.9-30.6,658.7,45.9,988.1c60.8,287.2,91.4,475,175.4,32.9c22.7-197.6,125.7-531.6,38-964.4l-103-141L9098.4,10092.1z"/>
<path fill="#FFFFFF" stroke="#010101" stroke-width="2" stroke-miterlimit="10" d="M8985.7,9554c0-53.8,45-140.6,90-154.9
	c22.7-14.4,59.8,10.7,97.4,18.1c59.8,18.1,150.3,28.8,217.6,32.5c199,104.4,41.3,561.8-22.7,698.6c-3.7,3.7-7.4,10.7-11.1,14.4
	c-26.4,18.1-225,7.4-251.4-50.6C9090.5,10119.5,9008,9748.8,8985.7,9554z"/>
<path fill="#F2ECBE" stroke="#020202" stroke-width="2" stroke-miterlimit="10" d="M8379.8,10115.3
	c-47.3,183.2,6,660.6,100.7,1080.4c47.3,227.8,231,178.6,219.4,31.1c-6-223.1-6-388.3,77-602.6c6-49.2,17.6-62.6,23.7-129.4
	c12.1-111.8,12.1-209.7,12.1-326.1c-77-26.9-160-53.8-237.1-84.9C8510.2,10092.6,8445.2,10101.9,8379.8,10115.3L8379.8,10115.3z"/>
<path fill="#FFFFFF" stroke="#010101" stroke-width="2" stroke-miterlimit="10" d="M8302.8,9519.7c5.6-28.8,32.9-74.2,66.3-82.6
	c143.3-53.8,375.3-41.3,508,4.2c44.1,24.6,66.3,45.5,66.3,70c-5.6,226.8-49.6,469.9-143.3,668c-154.5,103-353-4.2-403.1-53.8
	C8324.6,9940.4,8307.9,9750.7,8302.8,9519.7L8302.8,9519.7z"/>
<path fill="#FFFFFF" stroke="#010101" stroke-width="2" stroke-miterlimit="10" d="M11692.1,6787.8c-4.2-12.5-48.2-21.3-61.2-67.7
	c-4.2-33.9-8.8-67.7,0-109.9c21.8-105.8,57.1-194.4,262.6-329.4c34.8-21.3,118.3-12.5,166.1,12.5
	c253.8,130.8,262.6,130.8,415.7,367.4c21.8,46.4,26.4,295.5,4.2,341.9c-39.4,118.3-109.5,219.4-236.1,236.6
	c-13,0-21.8,21.3-34.8,25.5c-26.4,12.5-78.9,21.3-96,8.4c-13-12.5-48.2-25.5-61.2-25.5c-13,4.2-26.4,12.5-39.4,12.5
	c-43.6,16.7-113.7,8.4-144.3-12.5c-39.4-25.5-131.3-80.3-205.5-215.2c-13-33.9-17.6-92.8-13-139.2
	C11652.6,6859.7,11670.3,6825.8,11692.1,6787.8L11692.1,6787.8z"/>
<path fill="#FFFFFF" stroke="#010101" stroke-width="2" stroke-miterlimit="10" d="M12164.3,6809.1c8.8-12.5,0-25.5-4.2-38
	c-4.2-4.2,39.4-38,57.1-33.9c26.4,0,4.2,118.3,26.4,130.8c17.6,12.5,30.6,25.5,30.6,42.2c-4.2,25.5-87.7,236.6-231.9,295.5"/>
<path fill="#FFFFFF" stroke="#010101" stroke-width="2" stroke-miterlimit="10" d="M11687.9,6783.6c17.6,12.5,83-8.4,91.9,12.5
	c13,16.7,43.6,105.8,65.4,109.9c26.4-4.2,74.2-88.6,91.9-92.8c26.4-4.2,30.6-16.7,48.2-21.3c43.6-8.4,91.9-8.4,104.8-4.2
	c17.6,12.5,21.8,33.9,17.6,54.7c4.2,16.7,39.4,0,57.1,12.5c21.8,21.3,43.6,54.7,61.2,63.6c17.6,8.4,65.4-8.4,91.9,16.7
	c30.6,12.5,87.7-67.7,104.8-67.7c17.6-4.2,48.2,0,65.4-4.2 M11630.8,6720.5c0-58.9,43.6-118.3,57.1-114.1c8.8,4.2-13,67.7,0,92.8"/>
<path fill="#FFFFFF" stroke="#010101" stroke-width="2" stroke-miterlimit="10" d="M11871.6,6990.5c4.2-16.7,4.2-42.2,0-58.9
	c-4.2-12.5-13-16.7-26.4-25.5 M11810.4,6593.9c17.6,50.6-4.2,92.8,0,122.5c4.2,21.3,65.4,80.3,126.6,97 M11967.6,6602.2
	c26.4,12.5,52.4,21.3,52.4,38c0,16.7,34.8,80.3,30.6,101.1c-4.2,21.3-30.6,29.7-30.6,50.6 M12164.3,6610.6
	c-8.8,54.7-61.2,92.8-61.2,118.3c4.2,21.3-13,42.2-8.8,58.9c21.8,16.7,21.8,38,17.6,54.7c-13,12.5-21.8,25.5-13,42.2
	c8.8,16.7,30.6,38,30.6,50.6c0,12.5-13,29.7-21.8,33.9c-13,4.2-30.6,16.7-39.4,29.7 M12379.1,6906.1c-4.2-16.7-8.8-42.2-21.8-54.7
	c-8.8-8.4,0-29.7-4.2-46.4c-4.2-8.4-21.8-8.4-26.4-21.3c4.2-16.7,17.6-25.5,34.8-33.9"/>
<path fill="#FFFFFF" stroke="#010101" stroke-width="2" stroke-miterlimit="10" d="M10616.8,6879.6c-4.2-12.1-41.3-52.4-49.6-68.7
	c-12.5-16.2-24.6-257.9,0-282.1c95.1-96.5,193.9-141,222.7-153.1c41.3-16.2,136.4-16.2,193.9-4.2c272.3,52.4,450,161,487.1,314.1
	c12.5,56.6,8.3,177.2-4.2,270c-8.4,76.5-37.1,129-78.4,185.1c-28.8,44.1-74.2,88.6-107.2,100.7c-28.8,12.1-99.3,12.1-140.1,12.1
	c-20.4-4.2-82.6-64.5-99.3-64.5c-12.5-4.2-65.9,19.9-99.3,32c-24.6,7.9-70,7.9-95.1,0c-41.3-7.9-107.2-40.4-156.8-92.8
	c-53.8-60.3-86.7-145.2-86.7-169.3C10600.1,6944.1,10616.8,6895.9,10616.8,6879.6L10616.8,6879.6z"/>
<path fill="#FFFFFF" stroke="#010101" stroke-width="2" stroke-miterlimit="10" d="M11400.7,6912.1c-32.9,0-37.1-16.2-65.9-19.9
	c-24.6-4.2-49.6,0-70,4.2c-12.5,4.2-24.6,24.1-37.1,24.1c-12.5-4.2-12.5-32-37.1-44.1c-16.7-7.9-24.6-32-41.3-32
	c-16.7,0-53.8,24.1-70,24.1c-16.7-4.2-37.1-28.3-58-32c-16.7,0-45.5-12.1-58-12.1c-16.7,0-53.8,19.9-78.4,24.1
	c-24.6,0-53.8-4.2-70,4.2c-16.7,4.2-28.8,19.9-41.3,19.9c-16.7,0-37.1,0-45.5-4.2 M11276.9,6630c24.6-16.2,53.8,24.1,58,36.2
	c12.5,24.1-4.2,44.1-12.5,56.6c-32.9,40.4-65.9,120.6-82.6,120.6c-12.5,0-70-40.4-95.1-68.7"/>
<path fill="#FFFFFF" stroke="#010101" stroke-width="2" stroke-miterlimit="10" d="M11190.1,6598c-28.8-16.2-78.4,4.2-82.6,12.1
	c-4.2,7.9-28.8,32-32.9,52.4c-4.2,24.1,8.4,48.2,12.5,56.6c8.4,12.1,49.6,40.4,58,56.6c0,12.1-45.5,40.4-61.7,88.6
	c0,19.9,28.8,19.9,24.6,36.2c-8.4,32-32.9,68.7-49.6,72.4c-20.4,7.9-45.5,60.3-82.6,60.3 M10868.2,6577.6
	c41.3-28.3,86.7,36.2,103,72.4l24.6,60.3c20.4,48.2,0,80.7,24.6,120.6 M10554.6,6706.6c32.9,16.2,82.6,48.2,111.3,64.5
	c16.7,7.9,16.7,68.7,78.4,100.7c-12.5,0-28.8,0-37.1,4.2c0,76.5-28.8,52.4-32.9,72.4c0,7.9-4.2,56.6,4.2,60.3
	c8.3,4.2,16.7,7.9,28.8,4.2 M10699.3,6557.7c20.4,0,41.3,0,61.7,19.9c12.5,12.1,16.7,40.4,16.7,56.6c0,19.9,4.2,80.7-8.4,108.6
	 M11029.2,7193.7c49.6-28.3,123.9-100.7,173.5-177.2c8.4-16.2,16.7-36.2,20.4-52.4c0-16.2,0-32,4.2-44.1"/>
<path fill="#FFFFFF" stroke="#010101" stroke-width="2" stroke-miterlimit="10" d="M9831.8,6651.4c-17.6,25.1-31.5,53.8-7,125.7
	c66.3,172.6,195.3,312.7,289.5,334.5c31.5,14.4,69.6,14.4,97.9,0c108.1-50.6,181.4-147.5,244.5-255.1c20.9-50.6,20.9-97,3.7-129.4
	c-45.5-97-157.3-190.7-226.8-219.4c-45.5-21.8-118.8-14.4-160.5,0C9978.4,6532.6,9866.6,6597.6,9831.8,6651.4L9831.8,6651.4z"/>
<path fill="#FFFFFF" stroke="#010101" stroke-width="2" stroke-miterlimit="10" d="M10027.1,6727c-10.7,14.4-10.7,39.4-10.7,57.5
	c3.7,18.1,13.9,36.2,24.6,46.9c20.9,21.8,20.9,50.6,20.9,79.3c10.7-3.7,20.9-3.7,31.5-7.4c13.9-7.4,24.6-14.4,38.5-18.1
	c13.9,0,34.8,3.7,38.5,0c0-3.7,34.8,7.4,34.8,18.1c3.7,10.7,7,46.9,0,64.9c-3.7,18.1,10.7,18.1,38.5,3.7
	c20.9-14.4,31.5-36.2,41.8-61.2c10.7-10.7,13.9-25.1,10.7-39.4c0-14.4,3.7-28.8,3.7-43.1c3.7-21.8,0-43.1-17.6-61.2
	c-13.9-7.4-24.6-14.4-41.8-14.4c-10.7,3.7-20.9,10.7-27.8,21.8c-24.6,28.8-69.6,90-108.1,64.9c3.7-18.1,7-39.4,7-57.5
	c0-21.8-10.7-32.5-24.6-43.1C10068.9,6727,10048,6727,10027.1,6727L10027.1,6727z"/>
<path fill="#FFFFFF" stroke="#010101" stroke-width="2" stroke-miterlimit="10" d="M9873.6,6694.5c-10.7,25.1,17.6,50.6,20.9,61.2
	c20.9,82.6,104.8,143.8,115,147.5c13.9,7.4,59.4,10.7,84,0c7-3.7,17.6-14.4,24.6-18.1c13.9-7.4,59.4-7.4,73.3,0
	c10.7,7.4,20.9,21.8,20.9,32.5c-3.7,21.8-10.7,57.5,0,61.2c17.6,3.7,31.5-10.7,45.5-25.1c13.9-14.4,20.9-46.9,31.5-53.8
	c10.7-14.4,7-28.8,20.9-32.5c17.6-3.7,38.5-10.7,55.7-21.8c17.6-10.7,27.8-7.4,41.8,0"/>
<path fill="#FFFFFF" stroke="#010101" stroke-width="2" stroke-miterlimit="10" d="M10212.2,6770.1c3.7-14.4,17.6-21.8,34.8-21.8
	c13.9,0,34.8,10.7,45.5,28.8c7,14.4,7,32.5,7,50.6c-3.7,25.1-7,50.6,0,61.2 M10041.1,6831.4c20.9,14.4,17.6,50.6,20.9,79.3h17.6
	c7,32.5-7,100.7,3.7,111.3c0,3.7,7,10.7,13.9,10.7c3.7,3.7,3.7,10.7,0,18.1 M10027.1,6727c52.4-3.7,80.3,18.1,87.2,50.6
	c0,25.1-13.9,57.5-3.7,71.9c7,10.7,20.9,21.8,24.6,36.2"/>
<path fill="#FFFFFF" stroke="#010101" stroke-width="2" stroke-miterlimit="10" d="M9126.2,6753.4
	c33.9-66.3,127.6-176.3,204.1-207.4c25.5-22.3,144.7-26.4,170.3,0c55.2,26.4,170.3,132.2,204.1,202.7
	c17.2,31.1,21.3,105.8,4.2,149.8c-29.7,92.8-110.4,172.1-195.8,233.8c-33.9,17.6-84.9,13.5-110.4,0c-25.5-8.8-187-136.9-259.3-242.6
	c-8.4-8.8-12.5-17.6-17.2-22.3C9104.9,6841.6,9109.1,6775.2,9126.2,6753.4z"/>
<path fill="#FFFFFF" stroke="#010101" stroke-width="2" stroke-miterlimit="10" d="M9134.6,6881c38,8.8,102.1,8.8,114.6,0
	c12.5-4.6,21.3-44.1,38-44.1s46.9,61.7,63.6,66.3c8.4,8.8,84.9,8.8,106.2,4.6c33.9-4.6,55.2-48.7,84.9-44.1
	c25.5,0,17.2,44.1,38,48.7c12.5,4.6,80.7-8.8,123.4,0 M9326.2,6995.6c0-35.3,8.4-75.2,33.9-92.8"/>
<path fill="#FFFFFF" stroke="#010101" stroke-width="2" stroke-miterlimit="10" d="M9500.1,7079.6c-17.2-31.1-55.2-52.9-55.2-70.5
	c-4.2-13.5,12.5-79.3,12.5-101.6 M9611,7044.3c-33.9-8.8-33.9-101.6-59.4-110.4c-8.4-8.8,4.2-26.4,21.3-35.3"/>
<path fill="#FFFFFF" stroke="#010101" stroke-width="2" stroke-miterlimit="10" d="M8526.9,6602.7c18.6-10.7,37.1-21.3,58.9-28.8
	c43.6-10.7,102.1-14.4,151.7-3.7c21.8,3.7,37.1,21.3,52.9,35.7c6,10.7,40.4,10.7,55.7,14.4c46.4,10.7,71.4,50.1,74.2,53.8
	c12.5,14.4,24.6,28.8,31.1,53.8c12.5,50.1,9.3,107.2-9.3,167.9c-43.6,71.4-114.6,221.7-192.1,257.5c-15.3,10.7-92.8,3.7-92.8,3.7
	c-71.4-50.1-427.7-282.5-294.6-436.5c12.5-28.8,62.2-96.5,105.3-103.9C8480.5,6613.3,8517.6,6609.6,8526.9,6602.7L8526.9,6602.7z"/>
<path fill="#FFFFFF" stroke="#010101" stroke-width="2" stroke-miterlimit="10" d="M8362.7,6878.2c9.3-21.3,18.6-32,37.1-35.7
	c40.4-3.7,83.5-3.7,99.3,10.7c18.6,21.3,33.9,10.7,46.4-7c18.6-10.7,40.4-10.7,62.2-3.7h58.9c9.3,7,15.3,14.4,24.6,21.3l15.3-18.1
	c21.8,0,43.6-3.7,62.2-3.7c31.1-14.4,58.9-18.1,83.5-14.4c21.8,3.7,37.1,18.1,43.6,35.7c6,25.1,6,53.8,0,85.8
	c-3.2,21.3-9.3,35.7-21.8,50.1c-24.6-3.7-40.4-18.1-52.9-46.4c-24.6-21.3-52.9-28.8-90-25.1c-15.3,14.4-31.1,21.3-49.6,18.1
	c-33.9-35.7-27.8-53.8-71.4-46.4c-12.5,0-24.6,3.7-40.4,3.7c-6,3.7-24.6,25.1-46.4,10.7c-6-10.7-12.5-14.4-21.8-18.1
	c-15.3-7-40.4,14.4-64.9,43.1c-6,7-9.3,7-15.3,14.4C8396.5,6924.6,8381.2,6906.5,8362.7,6878.2L8362.7,6878.2z"/>
<path fill="#FFFFFF" stroke="#010101" stroke-width="2" stroke-miterlimit="10" d="M8545.4,6845.8c-9.3,7-21.8,21.3-33.9,18.1
	c-9.3,0-15.3-18.1-27.8-21.3c-40.4,0-83.5-3.7-96,3.7c-9.3,7-21.8,21.3-31.1,35.7 M8607.6,6842h58.9c6,0,15.3,21.3,24.6,21.3
	c6,0,15.3-21.3,21.8-21.3h58.9 M8852.1,6828.1c15.3,3.7,33.9,14.4,40.4,28.8c6,14.4,9.3,60.8,0,93.2c-3.2,21.3-6,32-21.8,50.1
	c-18.6,10.7-43.6-18.1-52.9-46.4 M8567.2,6903.3c24.6-7,52.9-7,77.5,0c18.6,14.4,18.6,39.4,33.9,39.4c18.6,0,33.9-10.7,49.6-18.1"/>
<path fill="#FFFFFF" stroke="#010101" stroke-width="2" stroke-miterlimit="10" d="M8787.1,7121.3c-18.6-18.1-43.6-32-68.2-43.1
	c-9.3-3.7-15.3-43.1-31.1-64.5c-6-18.1-12.5-46.4-9.3-68.2"/>
<path fill="#FFFFFF" stroke="#010101" stroke-width="2" stroke-miterlimit="10" d="M8412.3,6956.6c24.6-14.4,43.6-35.7,64.9-57.1
	c12.5-7,31.1-10.7,43.6,14.4c3.2,39.4,12.5,71.4,21.8,100.2c9.3,43.1,64.9,100.2,96,125.3"/>
<path fill="#FFFFFF" stroke="#010101" stroke-width="2" stroke-miterlimit="10" d="M4822.7,6766.9c21.8,38,39.4,71.9,43.6,105.8
	c4.2,46.4,0,105.8-13,139.2c-74.2,135-166.1,190.2-205.5,215.2c-30.6,21.3-100.7,29.7-144.3,12.5c-13,0-26.4-8.4-39.4-12.5
	c-13,0-48.2,12.5-61.2,25.5c-17.6,12.5-70,4.2-96-8.4c-13-4.2-21.8-25.5-34.8-25.5c-126.6-16.7-196.7-118.3-236.1-236.6
	c-21.8-46.4-17.6-295.5,4.2-341.9c153.1-236.6,161.9-236.6,415.7-367.4c48.2-25.5,131.3-33.9,166.1-12.5
	c205.5,135,240.8,223.6,262.6,329.4c8.8,42.2,4.2,76.1,0,109.9C4870.4,6746,4826.8,6754.4,4822.7,6766.9L4822.7,6766.9z"/>
<path fill="#FFFFFF" stroke="#010101" stroke-width="2" stroke-miterlimit="10" d="M4472.4,7184.9
	c-144.3-58.9-227.3-270-231.9-295.5c0-16.7,13-29.7,30.6-42.2c21.8-12.5,0-130.8,26.4-130.8c17.6-4.2,61.2,29.7,57.1,33.9
	c-4.2,12.5-13,25.5-4.2,38"/>
<path fill="#FFFFFF" stroke="#010101" stroke-width="2" stroke-miterlimit="10" d="M4026.1,6843c17.6,4.2,48.2,0,65.4,4.2
	c17.6,0,74.2,80.3,104.8,67.7c26.4-25.5,74.2-8.4,91.9-16.7c17.6-8.4,39.4-42.2,61.2-63.6c17.6-12.5,52.4,4.2,57.1-12.5
	c-4.2-21.3,0-42.2,17.6-54.7c13-4.2,61.2-4.2,104.8,4.2c17.6,4.2,21.8,16.7,48.2,21.3c17.6,4.2,65.4,88.6,91.9,92.8
	c21.8-4.2,52.4-92.8,65.4-109.9c8.8-21.3,74.2,0,91.9-12.5 M4826.8,6678.3c13-25.5-8.8-88.6,0-92.8c13-4.2,57.1,54.7,57.1,114.1"/>
<path fill="#FFFFFF" stroke="#010101" stroke-width="2" stroke-miterlimit="10" d="M4669.6,6885.2c-13,8.4-21.8,12.5-26.4,25.5
	c-4.2,16.7-4.2,42.2,0,58.9 M4577.7,6792.4c61.2-16.7,122.5-76.1,126.6-97c4.2-29.7-17.6-71.9,0-122.5 M4494.2,6771.1
	c0-21.3-26.4-29.7-30.6-50.6c-4.2-21.3,30.6-84.4,30.6-101.1c0-16.7,26.4-25.5,52.4-38 M4446.4,6978c-8.8-12.5-26.4-25.5-39.4-29.7
	c-8.8-4.2-21.8-21.3-21.8-33.9c0-12.5,21.8-33.9,30.6-50.6c8.8-16.7,0-29.7-13-42.2c-4.2-16.7-4.2-38,17.6-54.7
	c4.2-16.7-13-38-8.8-58.9c0-25.5-52.4-63.6-61.2-118.3 M4153.2,6728.9c17.6,8.4,30.6,16.7,34.8,33.9c-4.2,12.5-21.8,12.5-26.4,21.3
	c-4.2,16.7,4.2,38-4.2,46.4c-13,12.5-17.6,38-21.8,54.7"/>
<path fill="#FFFFFF" stroke="#010101" stroke-width="2" stroke-miterlimit="10" d="M5898,6858.7c0,16.2,16.7,64.5,12.5,80.7
	c0,24.1-32.9,108.6-86.7,169.3c-49.6,52.4-115.5,84.4-156.8,92.8c-24.6,7.9-70,7.9-95.1,0c-32.9-12.1-86.7-36.2-99.3-32
	c-16.7,0-78.4,60.3-99.3,64.5c-41.3,0-111.3,0-140.1-12.1c-32.9-12.1-78.4-56.6-107.2-100.7c-41.3-56.6-70-108.6-78.4-185.1
	c-12.5-92.8-16.7-213.4-4.2-270c37.1-153.1,214.8-261.6,487.1-314.1c58-12.1,152.6-12.1,193.9,4.2c28.8,12.1,128,56.6,222.7,153.1
	c24.6,24.1,12.5,265.8,0,282.1C5939.3,6806.3,5902.1,6846.7,5898,6858.7L5898,6858.7z"/>
<path fill="#FFFFFF" stroke="#010101" stroke-width="2" stroke-miterlimit="10" d="M5786.6,6846.7c-8.4,4.2-28.8,4.2-45.5,4.2
	c-12.5,0-24.6-16.2-41.3-19.9c-16.7-7.9-45.5-4.2-70-4.2c-24.6-4.2-61.7-24.1-78.4-24.1c-12.5,0-41.3,12.1-58,12.1
	c-20.4,4.2-41.3,28.3-58,32c-16.7,0-53.8-24.1-70-24.1s-24.6,24.1-41.3,32c-24.6,12.1-24.6,40.4-37.1,44.1
	c-12.5,0-24.6-19.9-37.1-24.1c-20.4-4.2-45.5-7.9-70-4.2c-28.8,4.2-32.9,19.9-65.9,19.9 M5369.6,6754.4
	c-24.6,28.3-82.6,68.7-95.1,68.7c-16.7,0-49.6-80.7-82.6-120.6c-8.4-12.1-24.6-32-12.5-56.6c4.2-12.1,32.9-52.4,58-36.2"/>
<path fill="#FFFFFF" stroke="#010101" stroke-width="2" stroke-miterlimit="10" d="M5538.9,7011.8c-37.1,0-61.7-52.4-82.6-60.3
	c-16.7-4.2-41.3-40.4-49.6-72.4c-4.2-16.2,24.6-16.2,24.6-36.2c-16.7-48.2-61.7-76.5-61.7-88.6c8.4-16.2,49.6-44.1,58-56.6
	c4.2-7.9,16.7-32,12.5-56.6c-4.2-19.9-28.8-44.1-32.9-52.4c-4.2-8.4-53.8-28.3-82.6-12.1 M5493.5,6810.5
	c24.6-40.4,4.2-72.4,24.6-120.6l24.6-60.3c16.7-36.2,61.7-100.7,103-72.4 M5807,6991.9c12.5,4.2,20.4,0,28.8-4.2
	c8.4-4.2,4.2-52.4,4.2-60.3c-4.2-19.9-32.9,4.2-32.9-72.4c-8.4-4.2-24.6-4.2-37.1-4.2c61.7-32,61.7-92.8,78.4-100.7
	c28.8-16.2,78.4-48.2,111.3-64.5 M5745.4,6721.9c-12.5-28.3-8.4-88.6-8.4-108.6c0-16.2,4.2-44.1,16.7-56.6
	c20.4-19.9,41.3-19.9,61.7-19.9 M5287,6899.1c4.2,12.1,4.2,28.3,4.2,44.1c4.2,16.2,12.5,36.2,20.4,52.4
	c49.6,76.5,123.9,148.9,173.5,177.2"/>
<path fill="#FFFFFF" stroke="#010101" stroke-width="2" stroke-miterlimit="10" d="M6682.4,6645.4
	c-34.8-53.8-146.6-118.8-240.8-143.8c-41.8-14.4-115-21.8-160.5,0c-69.6,28.8-181.4,122.5-226.8,219.4
	c-17.6,32.5-17.6,79.3,3.7,129.4c62.6,108.1,135.9,205,244.5,255.1c27.8,14.4,66.3,14.4,97.9,0c94.2-21.8,223.1-161.9,289.5-334.5
	C6714,6699.6,6700.1,6670.9,6682.4,6645.4L6682.4,6645.4z"/>
<path fill="#FFFFFF" stroke="#010101" stroke-width="2" stroke-miterlimit="10" d="M6487.1,6721c-20.9,0-41.8,0-59.4,10.7
	c-13.9,10.7-24.6,21.8-24.6,43.1c0,18.1,3.7,39.4,7,57.5c-38.5,25.1-84-36.2-108.1-64.9c-7-10.7-17.6-18.1-27.8-21.8
	c-17.6,0-27.8,7.4-41.8,14.4c-17.6,18.1-20.9,39.4-17.6,61.2c0,14.4,3.7,28.8,3.7,43.1c-3.7,14.4,0,28.8,10.7,39.4
	c10.7,25.1,20.9,46.9,41.8,61.2c27.8,14.4,41.8,14.4,38.5-3.7c-7-18.1-3.7-53.8,0-64.9c0-10.7,34.8-21.8,34.8-18.1
	c3.7,3.7,24.6,0,38.5,0c13.9,3.7,24.6,10.7,38.5,18.1c10.7,3.7,20.9,3.7,31.5,7.4c0-28.8,0-57.5,20.9-79.3
	c10.7-10.7,20.9-28.8,24.6-46.9C6497.8,6760.4,6497.8,6735.4,6487.1,6721L6487.1,6721z"/>
<path fill="#FFFFFF" stroke="#010101" stroke-width="2" stroke-miterlimit="10" d="M6106.7,6839.7c13.9-7.4,24.6-10.7,41.8,0
	c17.6,10.7,38.5,18.1,55.7,21.8c13.9,3.7,10.7,18.1,20.9,32.5c10.7,7.4,17.6,39.4,31.5,53.8s27.8,28.8,45.5,25.1
	c10.7-3.7,3.7-39.4,0-61.2c0-10.7,10.7-25.1,20.9-32.5c13.9-7.4,59.4-7.4,73.3,0c7,3.7,17.6,14.4,24.6,18.1c24.6,10.7,69.6,7.4,84,0
	c10.7-3.7,94.2-64.9,115-147.5c3.7-10.7,31.5-36.2,20.9-61.2"/>
<path fill="#FFFFFF" stroke="#010101" stroke-width="2" stroke-miterlimit="10" d="M6214.8,6882.9c7-10.7,3.7-36.2,0-61.2
	c0-18.1,0-36.2,7-50.6c10.7-18.1,31.5-28.8,45.5-28.8c17.6,0,31.5,7.4,34.8,21.8 M6417.5,7044.8c-3.7-7.4-3.7-14.4,0-18.1
	c7,0,13.9-7.4,13.9-10.7c10.7-10.7-3.7-79.3,3.7-111.3h17.6c3.7-28.8,0-64.9,20.9-79.3 M6379,6879.2c3.7-14.4,17.6-25.1,24.6-36.2
	c10.7-14.4-3.7-46.9-3.7-71.9c7-32.5,34.8-53.8,87.2-50.6"/>
<path fill="#FFFFFF" stroke="#010101" stroke-width="2" stroke-miterlimit="10" d="M7388,6862c-4.2,4.6-8.4,13.5-17.2,22.3
	c-72.4,105.8-233.8,233.8-259.3,242.6c-25.5,13.5-76.5,17.6-110.4,0c-84.9-61.7-165.6-141-195.8-233.8
	c-17.2-44.1-12.5-119.2,4.2-149.8c33.9-70.5,148.9-176.3,204.1-202.7c25.5-26.4,144.7-22.3,170.3,0c76.5,31.1,170.3,141,204.1,207.4
	C7405.2,6769.2,7409.4,6835.6,7388,6862z"/>
<path fill="#FFFFFF" stroke="#010101" stroke-width="2" stroke-miterlimit="10" d="M6810,6906.1c42.7-8.8,110.4,4.6,123.4,0
	c21.3-4.6,12.5-48.7,38-48.7c29.7-4.6,51,39.9,84.9,44.1c21.3,4.6,97.9,4.6,106.2-4.6c17.2-4.6,46.9-66.3,63.6-66.3
	s25.5,39.9,38,44.1c12.5,8.8,76.5,8.8,114.6,0 M7154.2,6897.3c25.5,17.6,33.9,57.5,33.9,92.8"/>
<path fill="#FFFFFF" stroke="#010101" stroke-width="2" stroke-miterlimit="10" d="M7056.3,6901.4c0,22.3,17.2,88.1,12.5,101.6
	c0,17.6-38,39.9-55.2,70.5 M6941.7,6892.6c17.2,8.8,29.7,26.4,21.3,35.3c-25.5,8.8-25.5,101.6-59.4,110.4"/>
<path fill="#FFFFFF" stroke="#010101" stroke-width="2" stroke-miterlimit="10" d="M7987.4,6596.6c9.3,7,46.4,10.7,58.9,14.4
	c43.6,7,92.8,75.2,105.3,103.9c133.1,154-223.1,386.4-294.6,436.5c0,0-77.5,7-92.8-3.7c-77.5-35.7-148.9-186-192.1-257.5
	c-18.6-60.8-21.8-118.3-9.3-167.9c6-25.1,18.6-39.4,31.1-53.8c3.2-3.7,27.8-43.1,74.2-53.8c15.3-3.7,49.6-3.7,55.7-14.4
	c15.3-14.4,31.1-32,52.9-35.7c49.6-10.7,108.6-7,151.7,3.7C7950.3,6575.3,7968.8,6586,7987.4,6596.6L7987.4,6596.6z"/>
<path fill="#FFFFFF" stroke="#010101" stroke-width="2" stroke-miterlimit="10" d="M8151.6,6872.2c-18.6,28.8-33.9,46.4-58.9,75.2
	c-6-7-9.3-7-15.3-14.4c-24.6-28.8-49.6-50.1-64.9-43.1c-9.3,3.7-15.3,7-21.8,18.1c-21.8,14.4-40.4-7-46.4-10.7
	c-15.3,0-27.8-3.7-40.4-3.7c-43.6-7-37.1,10.7-71.4,46.4c-18.6,3.7-33.9-3.7-49.6-18.1c-37.1-3.7-64.9,3.7-90,25.1
	c-12.5,28.8-27.8,43.1-52.9,46.4c-12.5-14.4-18.6-28.8-21.8-50.1c-6-32-6-60.8,0-85.8c6-18.1,21.8-32,43.6-35.7
	c24.6-3.7,52.9,0,83.5,14.4c18.6,0,40.4,3.7,62.2,3.7l15.3,18.1c9.3-7,15.3-14.4,24.6-21.3h58.9c21.8-7,43.6-7,62.2,3.7
	c12.5,18.1,27.8,28.8,46.4,7c15.3-14.4,58.9-14.4,99.3-10.7C8133,6839.7,8142.3,6850.4,8151.6,6872.2L8151.6,6872.2z"/>
<path fill="#FFFFFF" stroke="#010101" stroke-width="2" stroke-miterlimit="10" d="M8157.6,6875.4c-9.3-14.4-21.8-28.8-31.1-35.7
	c-12.5-7-55.7-3.7-96-3.7c-12.5,3.7-18.6,21.3-27.8,21.3c-12.5,3.7-24.6-10.7-33.9-18.1 M7742.4,6836.5h58.9
	c6,0,15.3,21.3,21.8,21.3c9.3,0,18.6-21.3,24.6-21.3h58.9 M7696,6947.4c-9.3,28.8-33.9,57.1-52.9,46.4
	c-15.3-18.1-18.6-28.8-21.8-50.1c-9.3-32-6-78.9,0-93.2c6-14.4,24.6-25.1,40.4-28.8 M7786,6918.6c15.3,7,31.1,18.1,49.6,18.1
	c15.3,0,15.3-25.1,33.9-39.4c24.6-7,52.9-7,77.5,0"/>
<path fill="#FFFFFF" stroke="#010101" stroke-width="2" stroke-miterlimit="10" d="M7835.7,6939.9c3.2,21.3-3.2,50.1-9.3,68.2
	c-15.3,21.3-21.8,60.8-31.1,64.5c-24.6,10.7-49.6,25.1-68.2,43.1"/>
<path fill="#FFFFFF" stroke="#010101" stroke-width="2" stroke-miterlimit="10" d="M7876,7133.4c31.1-25.1,86.7-82.1,96-125.3
	c9.3-28.8,18.6-60.8,21.8-100.2c12.5-25.1,31.1-21.3,43.6-14.4c21.8,21.3,40.4,43.1,64.9,57.1"/>
<path fill="#FFFFFF" stroke="#010101" stroke-width="2" stroke-miterlimit="10" d="M12349.9,8494.9c13.5-24.6,26.9-39.4,31.5-64
	c4.6-34.3,4.6-98.3-4.6-132.7c-8.8-39.4-40.4-83.5-81.2-108.1c-54.3-29.7-99.3-29.7-139.6-5.1c-13.5,5.1-18.1,24.6-26.9,29.7
	c-22.7,0-26.9-34.3-54.3-39.4c-45-9.7-54.3-39.4-85.8-34.3c-26.9,0-54.3,24.6-63.1,34.3c-13.5,14.8-13.5,34.3-26.9,39.4
	c-13.5,0-22.7-19.5-31.5-29.7c-8.8-14.8-45-39.4-76.5-39.4c-26.9-5.1-40.4,14.8-63.1,14.8c-18.1,0-112.7,0-130.8,14.8
	c-31.5,19.5-67.7,49.2-85.8,122.9c-4.6,54.3-31.5,58.9-26.9,117.8c0,54.3,22.7,49.2,22.7,64c0,14.8-58.5,39.4-76.5,108.1
	c-13.5,54.3-8.8,128,0,162.4c8.8,34.3,31.5,83.5,54.3,117.8c36.2,54.3,81.2,98.3,117.4,122.9c31.5,14.8,76.5,19.5,108.1,29.7
	c22.7,5.1,121.5,58.9,171.2,73.8c67.7,14.8,144.3,14.8,212,0c45-9.7,90,0,135.5-14.8c63.1-19.5,167-231,185.1-275.1
	c18.1-54.3,13.5-132.7-4.6-162.4C12394.9,8617.9,12394.9,8539.5,12349.9,8494.9L12349.9,8494.9z"/>
<path fill="#FFFFFF" stroke="#010101" stroke-width="2" stroke-miterlimit="10" d="M11623.9,8347.4c8.8,44.1,18.1,78.9,40.4,103.5
	c26.9,44.1,67.7,54.3,103.9,64c36.2,5.1,58.5-9.7,90-29.7c31.5-5.1,58.5-9.7,90-14.8c63.1-9.7,108.1-9.7,144.3,0
	c45,9.7,85.8,29.7,130.8,58.9c40.4,34.3,72.4,73.8,103.9,108.1c8.8,24.6,4.6,49.2-22.7,68.7c-18.1,14.8-49.6,14.8-67.7,9.7
	c-26.9,9.7-67.7,5.1-94.6-5.1c-13.5,24.6-26.9,39.4-67.7,49.2c-26.9,5.1-49.6,0-63.1-9.7c-36.2-34.3-40.4-39.4-63.1-24.6
	c-18.1,9.7-31.5,19.5-49.6,29.7c-36.2,5.1-67.7,0-94.6-9.7l-108.1-14.8c-8.8-5.1-18.1,0-26.9-5.1c-45-9.7-90-29.7-103.9-54.3
	c-22.7-24.6-36.2-54.3-31.5-88.6c13.5-54.3,45-83.5,72.4-103.4C11592.3,8431.4,11597,8386.8,11623.9,8347.4L11623.9,8347.4z"/>
<path fill="#FFFFFF" stroke="#010101" stroke-width="2" stroke-miterlimit="10" d="M12323,8642.4c-36.2-54.3-94.6-108.1-130.8-128
	c-22.7-9.7-45-24.6-72.4-29.7c-94.6-29.7-130.8-19.5-193.9-5.1c-13.5,5.1-49.6,0-67.7,9.7c-31.5,9.7-36.2,29.7-63.1,29.7
	c-22.7,0-40.4,0-58.5-14.8c-45-14.8-72.4-44.1-94.6-88.6c-8.8-19.5-8.8-64-18.1-68.7c-18.1,5.1-36.2,58.9-22.7,142.4
	c0,14.8-40.4,24.6-67.7,78.9c-4.6,19.5-8.8,34.3-8.8,49.2s18.1,44.1,31.5,64"/>
<path fill="#FFFFFF" stroke="#010101" stroke-width="2" stroke-miterlimit="10" d="M12349.9,8494.9c-36.2-9.7-76.5-9.7-94.6-5.1
	c-22.7,5.1-40.4,24.6-63.1,29.7 M12111,8578.9c13.5,14.8,26.9,34.3,31.5,58.9c4.6,24.6,0,54.3-4.6,78.9
	c-8.8,14.8-22.7,34.3-36.2,39.4c-8.8,5.1-49.6,19.5-58.5,14.8c-8.8-5.1-45-19.5-58.5-39.4 M12232.5,8721.3
	c-36.2,5.1-67.7,5.1-94.6-5.1 M12002.9,8593.3c-22.7,29.7-54.3,58.9-58.5,68.7c-4.6,19.5,8.8,64,4.6,73.8
	c-8.8,9.7-49.6,34.3-72.4,39.4c-22.7,0-126.2-29.7-144.3-29.7c-22.7-5.1-58.5,5.1-67.7-9.7c-4.6-9.7,4.6-34.3,4.6-58.9
	c0-19.5-8.8-58.9,4.6-64c26.9-9.7,13.5-88.6,63.1-108.1"/>
<path fill="#FFFFFF" stroke="#010101" stroke-width="2" stroke-miterlimit="10" d="M11844.7,8573.8c0,24.6-26.9,49.2-36.2,64
	c-22.7,34.3,4.6,93.2-18.1,122.9"/>
<path fill="#FFFFFF" stroke="#010101" stroke-width="2" stroke-miterlimit="10" d="M11280.1,8507.9c-9.7-25.1,14.8-139.6,0-174.9
	c-63.6-95.1-196.2-184.6-314.1-180c-24.6,0-73.8,39.9-93.2,39.9c-19.5,0-58.9-30.2-78.4-39.9c-44.1-14.8-156.8-14.8-186.5-5.1
	c-49.2,19.9-156.8,95.1-206,184.6c-19.5,25.1-34.3,115-34.3,160c0,25.1-39.4,90-39.4,115c-9.7,30.2-14.8,99.7-5.1,135
	c14.8,34.8,83.5,79.8,122.5,109.9c19.5,14.8,53.8,70,73.8,99.7c103,109.9,191.1,79.8,215.7,90c44.1,19.9,103,45,196.2,39.9
	c88.1,5.1,112.7-25.1,132.7-25.1c58.9-25.1,127.6-25.1,152.2-34.8c83.5-30.2,112.7-119.7,122.5-135c34.3-50.1,34.3-209.7,24.6-249.6
	C11358.5,8607.6,11289.9,8537.6,11280.1,8507.9L11280.1,8507.9z"/>
<path fill="#FFFFFF" stroke="#010101" stroke-width="2" stroke-miterlimit="10" d="M10529.5,8533c-19.5,30.2-24.6,64.9-34.3,95.1
	c9.7,10.2,19.5,19.9,34.3,30.2c0,14.8-5.1,30.2-5.1,45c0,5.1,0,14.8,5.1,19.9h53.8v25.1h73.8c24.6-5.1,49.2-5.1,73.8-10.2
	c5.1-5.1,19.5-5.1,34.3-5.1c19.5,0,39.4,0,53.8,5.1c34.3,14.8,68.7,34.8,103,50.1c9.7,0,19.5,5.1,29.2,5.1
	c9.7-5.1,19.5-10.2,24.6-14.8c19.5-5.1,39.4-5.1,63.6-10.2c44.1-50.1,29.2-90,5.1-149.8c-9.7-14.8-24.6-30.2-49.2-34.8
	c0-30.2,0-59.8-14.8-84.9c-14.8-14.8-39.4-14.8-73.8-14.8c0-10.2,0-25.1,5.1-34.8c-9.7,5.1-24.6,5.1-34.3,10.2l-88.1-14.8
	c-29.2,14.8-53.8,25-83.5,39.9c-19.5,0-39.4-5.1-58.9-5.1C10627.4,8482.9,10578.3,8477.8,10529.5,8533L10529.5,8533z"/>
<path fill="#FFFFFF" stroke="#010101" stroke-width="2" stroke-miterlimit="10" d="M10495.2,8627.6c0,19.9,29.2,19.9,34.3,30.2
	c0,25.1-9.7,59.8,0,64.9c14.8,5.1,44.1-5.1,53.8,0c5.1,10.2-9.7,19.9,0,25c19.5,5.1,108.1,0,142.4-10.2 M10367.6,8457.8
	c14.8,14.8,24.6,45,39.4,50.1c24.6,0,14.8-64.9,19.5-70c9.7-5.1,29.2,5.1,39.4,0c9.7-5.1,0-19.9,5.1-25.1c9.7-5.1,88.1-5.1,103-5.1
	c9.7,0,19.5,19.9,14.8,34.8 M10647.4,8607.6c-14.8-45-19.5-115-5.1-124.8c19.5-14.8,53.8,5.1,68.7,0c19.5-10.2,44.1-30.2,78.4-39.9
	c39.4-5.1,58.9,34.8,122.5,5.1c0,19.9-9.7,34.8-9.7,50.1c-5.1,19.9-9.7,39.9-19.5,54.7c-19.5,14.8-39.4,45-49.2,70
	c-9.7,30.2-44.1,64.9-83.5,79.8"/>
<path fill="#FFFFFF" stroke="#010101" stroke-width="2" stroke-miterlimit="10" d="M10735.5,8288c-5.1,25-5.1,59.8,0,64.9
	c9.7,5.1,14.8,5.1,19.5,10.2c14.8,10.2-5.1,45,9.7,54.7l24.6,25.1 M11000.4,8308c-5.1,14.8-19.5,30.2-29.2,34.8
	c-9.7,0-9.7,34.8-19.5,54.7c-5.1,10.2-19.5,14.8-24.6,19.9c-9.7,10.2-14.8,25.1-14.8,34.8 M10907.2,8482.9
	c19.5-5.1,39.4-5.1,58.9,5.1c19.5,5.1,29.2,34.8,24.6,45c0,14.8-5.1,39.9,0,50.1c5.1,10.2,24.6,10.2,34.3,14.8s14.8,25.1,19.5,39.9
	 M11162.3,8407.7c-24.6,14.8-29.2,45-58.9,45c-19.5,0-44.1,19.9-39.4,30.2c5.1,14.8,19.5,0,39.4,14.8c14.8,14.8,24.6,30.2,34.3,39.9
	c19.5,14.8,19.5,54.7,39.4,64.9c14.8,10.2,0,34.8,9.7,50.1c9.7,10.2,19.5,10.2,24.6,19.9c5.1,10.2,0,75.2-5.1,90
	c-5.1,10.2-29.2,14.8-24.6,25.1 M10882.6,8552.9c14.8,19.9,9.7,75.2,39.4,90c24.6,19.9,14.8,39.9,68.7,95.1
	c14.8,5.1,49.2,19.9,49.2,34.8c0,10.2-29.2,0-49.2,5.1c-19.5,5.1-24.6,19.9-39.4,19.9c-9.7,0-39.4-10.2-53.8-19.9
	c-24.6-14.8-49.2-34.8-73.8-39.9"/>
<path fill="#FFFFFF" stroke="#010101" stroke-width="2" stroke-miterlimit="10" d="M9611.5,8573.8
	c16.2-25.5,153.6-178.6,225.9-238.4c40.4-25.5,97-17.2,129.4,0c64.5,38.5,109,68.2,153.5,127.6c28.3,33.9,60.8,97.9,72.8,148.9
	c24.1,59.4,16.2,123.4,4.2,178.6c-20.4,59.4-88.6,199.9-133.1,217.1c-36.2,13-169.8,8.4-201.8,0c-16.2-4.2-104.8-80.7-137.3-110.4
	c-44.5-51-80.7-115-116.9-178.6C9591.5,8684.7,9587.4,8620.6,9611.5,8573.8L9611.5,8573.8z"/>
<path fill="#FFFFFF" stroke="#010101" stroke-width="2" stroke-miterlimit="10" d="M9724.7,8608.1c4.2-25.5,16.2-33.9,28.3-42.7
	c28.3-8.3,28.3-21.3,56.6-42.7c16.2-97.9,7.9-89.5,84.9-144.7c28.3,25.5,7.9,144.7,7.9,182.8c7.9,119.2-24.1,148.9-56.6,144.7
	c-24.1,17.2-76.5-13-104.8-25.5C9728.9,8659.1,9712.6,8646.2,9724.7,8608.1L9724.7,8608.1z"/>
<path fill="#FFFFFF" stroke="#010101" stroke-width="2" stroke-miterlimit="10" d="M9978.9,8522.8c-16.2,17.2,7.9,46.9,12.1,55.2
	c7.9,17.2,16.2,46.9,4.2,64c-7.9,8.4-28.3,0-28.3,17.2c0,21.3,4.2,33.9,7.9,42.7c28.3,13,64.5,21.3,92.8-4.2
	c16.2-17.2,12.1-33.9,20.4-46.9c12.1-25.5,36.2-13,44.5-42.7c-4.2-29.7-16.2-46.9-36.2-76.5c-4.2-4.2-7.9-17.2-20.4-25.5
	C10068,8488.9,9999.3,8488.9,9978.9,8522.8L9978.9,8522.8z"/>
<path fill="#FFFFFF" stroke="#010101" stroke-width="2" stroke-miterlimit="10" d="M9805.4,8522.8c12.1-21.3,4.2-68.2,20.4-84.9
	c12.1-17.2,52.4-59.4,64.5-59.4c20.4,4.2,4.2,174.4,7.9,264 M10007.2,8501.9c24.1-4.2,60.8-4.2,68.7,0c7.9,4.2,36.2,46.9,40.4,55.2
	c4.2,13,20.4,42.7,16.2,51c-4.2,8.4-16.2,13-24.1,17.2c-7.9,4.2-16.2,13-20.4,21.3 M9995.1,8573.8c4.2,21.3,4.2,55.2,0,68.2
	c-7.9,8.4-20.4,0-24.1,8.4c-4.2,4.2,0,38.5,4.2,46.9c4.2,8.4,20.4,8.4,32.5,8.4 M9724.7,8612.3c0,13-4.2,38.5,4.2,51
	c12.1,21.3,44.5,33.9,52.4,38.5c12.1,4.2,40.4,4.2,60.8,4.2"/>
<path fill="#FFFFFF" stroke="#010101" stroke-width="2" stroke-miterlimit="10" d="M9136.9,8336.3c-26.9,14.4-71.9,72.4-81.2,106.2
	c-9.3,33.9-18.1,58-31.5,82.1c-13.5,19.5-71.9,67.3-85.4,91.4c-13.5,24.1-40.4,125.3-13.5,207.4c13.5,48.2,90,129.9,130.4,149.4
	c40.4,19.5,184.2,24.1,260.7,9.7c53.8-24.1,148.4-82.1,206.9-207.4c18.1-48.2,26.9-106.2-4.6-149.4
	c-81.2-110.9-175.4-212-265.4-298.8C9226.9,8312.1,9177.7,8307.5,9136.9,8336.3z"/>
<path fill="#FFFFFF" stroke="#010101" stroke-width="2" stroke-miterlimit="10" d="M9150.4,8413.3c13.5-24.1,36.2-33.9,49.6-33.9
	c31.5,0,45,28.8,45,72.4c0,9.7,0,24.1,4.6,33.9c26.9,4.6,36.2,19.5,22.3,52.9c26.9,9.7,53.8,14.4,81.2,9.7
	c18.1,0,36.2,28.8,53.8,52.9c26.9,33.9,22.3,72.4,18.1,110.9c-8.8,14.4-8.8,28.8-49.6,28.8c-22.3-14.4-26.9-28.8-31.5-33.9
	c-26.9,0-53.8-4.6-81.2-4.6c-18.1-4.6-31.5-9.7-45-14.4c-22.3-4.6-45-9.7-63.1-9.7c-45,9.7-116.9,86.7-139.6,9.7v-28.8
	c0-38.5,18.1-52.9,40.4-67.3c0-19.5,4.6-33.9,4.6-52.9c18.1-14.4,31.5-24.1,49.6-38.5c0-14.4,0-24.1,4.6-38.5
	C9128.1,8447.1,9136.9,8427.7,9150.4,8413.3L9150.4,8413.3z"/>
<path fill="#FFFFFF" stroke="#010101" stroke-width="2" stroke-miterlimit="10" d="M9155,8418.4c-18.1,9.7-31.5,24.1-45,48.2
	c-4.6,9.7,4.6,24.1,0,38.5c-4.6,9.7-40.4,24.1-49.6,33.9c-4.6,9.7,0,33.9-4.6,52.9c-4.6,14.4-31.5,19.5-36.2,33.9
	c-4.6,14.4-4.6,43.1-4.6,62.6 M9200,8384.5c22.3-9.7,31.5,0,45,33.9c8.8,19.5-4.6,52.9,4.6,67.3c8.8,9.7,22.3,4.6,26.9,14.4
	c4.6,9.7-8.8,33.9,0,38.5c13.5,19.5,94.6,0,98.8,24.1c4.6,24.1,40.4,43.1,49.6,62.6s4.6,58,4.6,91.4 M9136.9,8678.6
	c26.9-4.6,76.5,0,94.6,14.4c22.3,19.5,81.2,4.6,112.3,14.4"/>
<path fill="#FFFFFF" stroke="#020202" stroke-width="2" stroke-miterlimit="10" d="M8286.6,8567.8c38.5-104.8,120.6-244,159.6-274.2
	c53.3-39.9,106.2-34.8,145.2-19.9c62.6,29.7,207.8,189.3,261.2,298.8c14.4,34.8,14.4,129.4,9.7,209.2
	c-14.4,54.7-43.6,99.7-77.5,124.8c-38.5,19.9-87.2,25.1-149.8,45c-53.3,19.9-174,19.9-222.2-5.1c-77.5-39.9-111.3-139.6-125.7-194.4
	C8281.5,8697.6,8272.2,8627.6,8286.6,8567.8z"/>
<path fill="#FFFFFF" stroke="#020202" stroke-width="2" stroke-miterlimit="10" d="M8523.2,8343.7c33.9,0,58,19.9,62.6,45
	c9.7,19.9,19.5,49.6,29.2,69.6l72.4,59.8c33.9,25.1,62.6,49.6,77.5,89.5c9.7,25.1-4.6,34.8-29.2,34.8h-33.9
	c-24.1-9.7-53.3-5.1-96.5,0c-43.6,5.1-87.2,0-130.4-5.1h-62.6c-24.1-5.1-48.2,0-53.3-29.7c0-34.8,9.7-64.9,29.2-99.7
	c19.5-29.7,38.5-64.9,58-94.6C8465.2,8383.6,8489.3,8353.4,8523.2,8343.7L8523.2,8343.7z"/>
<path fill="#FFFFFF" stroke="#020202" stroke-width="2" stroke-miterlimit="10" d="M8518.5,8348.8c-19.5,0-43.6,14.8-58,39.9
	c-24.1,39.9-62.6,104.8-72.4,124.8c-14.4,19.9-29.2,64.9-24.1,99.7 M8576.5,8393.3c19.5,14.8,29.2,54.7,38.5,64.9
	c19.5,25.1,101.6,69.6,135.5,124.8c9.7,9.7,19.5,34.8,9.7,49.6c-14.4,9.7-38.5,9.7-58,5.1 M8412.3,8627.6
	c67.7,5.1,130.4,19.9,193.4,9.7"/>
<path fill="#FFFFFF" stroke="#010101" stroke-width="2" stroke-miterlimit="10" d="M4104.1,8549.2c-45,44.1-45,122.9-58.5,147.5
	c-18.1,29.7-22.7,108.1-4.6,162.4c18.1,44.1,121.5,255.6,185.1,275.1c45,14.8,90,5.1,135.5,14.8c67.7,14.8,144.3,14.8,212,0
	c49.6-14.8,148.9-68.7,171.2-73.8c31.5-9.7,76.5-14.8,108.1-29.7c36.2-24.6,81.2-68.7,117.4-122.9c22.7-34.3,45-83.5,54.3-117.8
	c9.3-34.3,13.5-108.1,0-162.4c-18.1-68.7-76.5-93.2-76.5-108.1c0-14.8,22.7-9.7,22.7-64c4.6-58.9-22.7-64-26.9-117.8
	c-18.1-73.8-54.3-103.5-85.8-122.9c-18.1-14.8-112.7-14.8-130.8-14.8c-22.7,0-36.2-19.5-63.1-14.8c-31.5,0-67.7,24.6-76.5,39.4
	c-8.8,9.7-18.1,29.7-31.5,29.7c-13.5-5.1-13.5-24.6-26.9-39.4c-8.8-9.7-36.2-34.3-63.1-34.3c-31.5-5.1-40.4,24.6-85.8,34.3
	c-26.9,5.1-31.5,39.4-54.3,39.4c-8.8-5.1-13.5-24.6-26.9-29.7c-40.4-24.6-85.8-24.6-139.6,5.1c-40.4,24.6-72.4,68.7-81.2,108.1
	c-8.8,34.3-8.8,98.3-4.6,132.7C4077.2,8510.2,4090.6,8524.6,4104.1,8549.2L4104.1,8549.2z"/>
<path fill="#FFFFFF" stroke="#010101" stroke-width="2" stroke-miterlimit="10" d="M4830.1,8402.1c26.9,39.4,31.5,83.5,18.1,132.7
	c26.9,19.5,58.5,49.2,72.4,103.4c4.6,34.3-8.8,64-31.5,88.6c-13.5,24.6-58.5,44.1-103.9,54.3c-8.8,5.1-18.1,0-26.9,5.1l-108.1,14.8
	c-26.9,9.7-58.5,14.8-94.6,9.7c-18.1-9.7-31.5-19.5-49.6-29.7c-22.7-14.8-26.9-9.7-63.1,24.6c-13.5,9.7-36.2,14.8-63.1,9.7
	c-40.4-9.7-54.3-24.6-67.7-49.2c-26.9,9.7-67.7,14.8-94.6,5.1c-18.1,5.1-49.6,5.1-67.7-9.7c-26.9-19.5-31.5-44.1-22.7-68.7
	c31.5-34.3,63.1-73.8,103.9-108.1c45-29.7,85.8-49.2,130.8-58.9c36.2-9.7,81.2-9.7,144.3,0c31.5,5.1,58.5,9.7,90,14.8
	c31.5,19.5,54.3,34.3,90,29.7c36.2-9.7,76.5-19.5,103.9-64C4812,8480.5,4820.8,8446.2,4830.1,8402.1L4830.1,8402.1z"/>
<path fill="#FFFFFF" stroke="#010101" stroke-width="2" stroke-miterlimit="10" d="M4897.8,8736.1c13.5-19.5,31.5-49.2,31.5-64
	c0-14.8-4.6-29.7-8.8-49.2c-26.9-54.3-67.7-64-67.7-78.9c13.5-83.5-4.6-137.8-22.7-142.4c-8.8,5.1-8.8,49.2-18.1,68.7
	c-22.7,44.1-49.6,73.8-94.6,88.6c-18.1,14.8-36.2,14.8-58.5,14.8c-26.9,0-31.5-19.5-63.1-29.7c-18.1-9.7-54.3-5.1-67.7-9.7
	c-63.1-14.8-99.3-24.6-193.9,5.1c-26.9,5.1-49.6,19.5-72.4,29.7c-36.2,19.5-94.6,73.8-130.8,128"/>
<path fill="#FFFFFF" stroke="#010101" stroke-width="2" stroke-miterlimit="10" d="M4261.8,8573.8c-22.7-5.1-40.4-24.6-63.1-29.7
	c-18.1-5.1-58.5-5.1-94.6,5.1 M4469.2,8785.3c-13.5,19.5-49.6,34.3-58.5,39.4c-8.8,5.1-49.6-9.7-58.5-14.8
	c-13.5-5.1-26.9-24.6-36.2-39.4c-4.6-24.6-8.8-54.3-4.6-78.9c4.6-24.6,18.1-44.1,31.5-58.9 M4316.1,8770.5
	c-26.9,9.7-58.5,9.7-94.6,5.1 M4717.3,8559.4c49.6,19.5,36.2,98.3,63.1,108.1c13.5,5.1,4.6,44.1,4.6,64c0,24.6,8.8,49.2,4.6,58.9
	c-8.8,14.8-45,5.1-67.7,9.7c-18.1,0-121.5,29.7-144.3,29.7c-22.7-5.1-63.1-29.7-72.4-39.4c-4.6-9.7,8.8-54.3,4.6-73.8
	c-4.6-9.7-36.2-39.4-58.5-68.7"/>
<path fill="#FFFFFF" stroke="#010101" stroke-width="2" stroke-miterlimit="10" d="M4663.5,8815c-22.7-29.7,4.6-88.6-18.1-122.9
	c-8.8-14.8-36.2-39.4-36.2-64"/>
<path fill="#FFFFFF" stroke="#010101" stroke-width="2" stroke-miterlimit="10" d="M5173.8,8562.2c-9.7,30.2-78.4,99.7-83.5,129.9
	c-9.7,39.9-9.7,199.9,24.6,249.6c9.7,14.8,39.4,104.8,122.5,135c24.6,10.2,93.2,10.2,152.2,34.8c19.5,0,44.1,30.2,132.7,25
	c93.2,5.1,152.2-19.9,196.2-39.9c24.6-10.2,112.7,19.9,215.7-90c19.5-30.2,53.8-84.9,73.8-99.7c39.4-30.2,108.1-75.2,122.5-109.9
	c9.7-34.8,5.1-104.8-5.1-135c0-25.1-39.4-90-39.4-115c0-45-14.8-135-34.3-160c-49.2-90-156.8-164.7-206-184.6
	c-29.2-10.2-142.4-10.2-186.5,5.1c-19.5,10.2-58.9,39.9-78.4,39.9s-68.7-39.9-93.2-39.9c-117.8-5.1-250,84.9-314.1,180
	C5159.4,8422.1,5184,8537.1,5173.8,8562.2L5173.8,8562.2z"/>
<path fill="#FFFFFF" stroke="#010101" stroke-width="2" stroke-miterlimit="10" d="M5924.4,8587.2c-49.2-54.7-97.9-50.1-117.8-54.7
	c-19.5,0-39.4,5.1-58.9,5.1c-29.2-14.8-53.8-25.1-83.5-39.9l-88.1,14.8c-9.7-5.1-24.6-5.1-34.3-10.2c5.1,10.2,5.1,25.1,5.1,34.8
	c-34.3,0-58.9,0-73.8,14.8c-14.8,25.1-14.8,54.7-14.8,84.9c-24.6,5.1-39.4,19.9-49.2,34.8c-24.6,59.8-39.4,99.7,5.1,149.8
	c24.6,5.1,44.1,5.1,63.6,10.2c5.1,5.1,14.8,10.2,24.6,14.8c9.7,0,19.5-5.1,29.2-5.1c34.3-14.8,68.7-34.8,103-50.1
	c14.8-5.1,34.3-5.1,53.8-5.1c14.8,0,29.2,0,34.3,5.1c24.6,5.1,49.2,5.1,73.8,10.2h73.8v-25.1h53.8c5.1-5.1,5.1-14.8,5.1-19.9
	c0-14.8-5.1-30.2-5.1-45c14.8-10.2,24.6-19.9,34.3-30.2C5949,8652.2,5944.4,8616.9,5924.4,8587.2L5924.4,8587.2z"/>
<path fill="#FFFFFF" stroke="#010101" stroke-width="2" stroke-miterlimit="10" d="M5728.2,8791.8c34.3,10.2,122.5,14.8,142.4,10.2
	c9.7-5.1-5.1-14.8,0-25c9.7-5.1,39.4,5.1,53.8,0c9.7-5.1,0-39.9,0-64.9c5.1-10.2,34.3-10.2,34.3-30.2 M5866,8497.2
	c-5.1-14.8,5.1-34.8,14.8-34.8c14.8,0,93.2,0,103,5.1c5.1,5.1-5.1,19.9,5.1,25.1c9.7,5.1,29.2-5.1,39.4,0c5.1,5.1-5.1,70,19.5,70
	c14.8-5.1,24.6-34.8,39.4-50.1 M5704.1,8757c-39.4-14.8-73.8-50.1-83.5-79.8c-9.7-25.1-29.2-54.7-49.2-70
	c-9.7-14.8-14.8-34.8-19.5-54.7c0-14.8-9.7-30.2-9.7-50.1c63.6,30.2,83.5-10.2,122.5-5.1c34.3,10.2,58.9,30.2,78.4,39.9
	c14.8,5.1,49.2-14.8,68.7,0c14.8,10.2,9.7,79.8-5.1,124.8"/>
<path fill="#FFFFFF" stroke="#010101" stroke-width="2" stroke-miterlimit="10" d="M5664.6,8497.2l24.6-25.1
	c14.8-10.2-5.1-45,9.7-54.7c5.1-5.1,9.7-5.1,19.5-10.2c5.1-5.1,5.1-39.9,0-64.9 M5542.2,8507c0-10.2-5.1-25.1-14.8-34.8
	c-5.1-5.1-19.5-10.2-24.6-19.9c-9.7-19.9-9.7-54.7-19.5-54.7c-9.7-5.1-24.6-19.9-29.2-34.8 M5409.5,8692.1
	c5.1-14.8,9.7-34.8,19.5-39.9c9.7-5.1,29.2-5.1,34.3-14.8c5.1-10.2,0-34.8,0-50.1c-5.1-10.2,5.1-39.9,24.6-45
	c19.5-10.2,39.4-10.2,58.9-5.1 M5272.2,8841.9c5.1-10.2-19.5-14.8-24.6-25.1c-5.1-14.8-9.7-79.8-5.1-90
	c5.1-10.2,14.8-10.2,24.6-19.9c9.7-14.8-5.1-39.9,9.7-50.1c19.5-10.2,19.5-50.1,39.4-64.9c9.7-10.2,19.5-25,34.3-39.9
	c19.5-14.8,34.3,0,39.4-14.8c5.1-10.2-19.5-30.2-39.4-30.2c-29.2,0-34.3-30.2-58.9-45 M5630.3,8791.8c-24.6,5.1-49.2,25.1-73.8,39.9
	c-14.8,10.2-44.1,19.9-53.8,19.9c-14.8,0-19.5-14.8-39.4-19.9c-19.5-5.1-49.2,5.1-49.2-5.1c0-14.8,34.3-30.2,49.2-34.8
	c53.8-54.7,44.1-75.2,68.7-95.1c29.2-14.8,24.6-70,39.4-90"/>
<path fill="#FFFFFF" stroke="#010101" stroke-width="2" stroke-miterlimit="10" d="M6891.2,8559.4c24.1,46.9,20.4,110.4,4.2,144.7
	c-36.2,64-72.8,127.6-116.9,178.6c-32.5,29.7-121.1,106.2-137.3,110.4c-32.5,8.4-165.6,13-201.8,0
	c-44.5-17.2-113.2-157.3-133.1-217.1c-12.1-55.2-20.4-119.2,4.2-178.6c12.1-51,44.5-115,72.8-148.9c44.5-59.4,88.6-89.5,153.6-127.6
	c32.5-17.2,88.6-25.5,129.4,0C6737.6,8380.8,6874.9,8533.9,6891.2,8559.4L6891.2,8559.4z"/>
<path fill="#FFFFFF" stroke="#010101" stroke-width="2" stroke-miterlimit="10" d="M6778,8593.3c12.1,38.5-4.2,51-16.2,72.4
	c-28.3,13-80.7,42.7-104.8,25.5c-32.5,4.2-64.5-25.5-56.6-144.7c0-38.5-20.4-157.3,7.9-182.8c76.5,55.2,68.7,46.9,84.9,144.7
	c28.3,21.3,28.3,33.9,56.6,42.7C6761.8,8559.4,6773.8,8567.8,6778,8593.3L6778,8593.3z"/>
<path fill="#FFFFFF" stroke="#010101" stroke-width="2" stroke-miterlimit="10" d="M6523.8,8508.4c-20.4-33.9-88.6-33.9-97-17.2
	c-12.1,8.4-16.2,21.3-20.4,25.5c-20.4,29.7-32.5,46.9-36.2,76.5c7.9,29.7,32.5,17.2,44.5,42.7c7.9,13,4.2,29.7,20.4,46.9
	c28.3,25.5,64.5,17.2,92.8,4.2c4.2-8.4,7.9-21.3,7.9-42.7c0-17.2-20.4-8.4-28.3-17.2c-12.1-17.2-4.2-46.9,4.2-64
	C6515.4,8555.2,6539.5,8525.1,6523.8,8508.4L6523.8,8508.4z"/>
<path fill="#FFFFFF" stroke="#010101" stroke-width="2" stroke-miterlimit="10" d="M6604.5,8627.6c4.2-89.5-12.1-259.3,7.9-264
	c12.1,0,52.4,42.7,64.5,59.4c16.2,17.2,7.9,64,20.4,84.9 M6414.3,8631.8c-4.2-8.4-12.1-17.2-20.4-21.3c-7.9-4.2-20.4-8.4-24.1-17.2
	c-4.2-8.4,12.1-38.5,16.2-51c4.2-8.4,32.5-51,40.4-55.2c7.9-4.2,44.5-4.2,68.7,0 M6495.5,8691.1c12.1,0,28.3,0,32.5-8.4
	s7.9-42.7,4.2-46.9c-4.2-8.4-16.2,0-24.1-8.4c-4.2-13-4.2-46.9,0-68.2 M6660.6,8691.1c20.4,0,48.2,0,60.8-4.2
	c7.9-4.2,40.4-17.2,52.4-38.5c7.9-13,4.2-38.5,4.2-51"/>
<path fill="#FFFFFF" stroke="#010101" stroke-width="2" stroke-miterlimit="10" d="M7248.4,8312.1c-90,86.7-184.2,187.9-265.4,298.8
	c-31.5,43.1-22.3,101.1-4.6,149.4c58.5,125.3,153.1,183.2,206.9,207.4c76.5,14.4,220.4,9.7,260.7-9.7
	c40.4-19.5,116.9-101.1,130.4-149.4c26.9-82.1,0-183.2-13.5-207.4c-13.5-24.1-71.9-72.4-85.4-91.4c-13.5-24.1-22.3-48.2-31.5-82.1
	c-8.8-33.9-53.8-91.4-81.2-106.2C7324.9,8292.7,7275.8,8297.8,7248.4,8312.1z"/>
<path fill="#FFFFFF" stroke="#010101" stroke-width="2" stroke-miterlimit="10" d="M7351.8,8398.9c13.5,14.4,22.3,33.9,36.2,48.2
	c4.6,14.4,4.6,24.1,4.6,38.5c18.1,14.4,31.5,24.1,49.6,38.5c0,19.5,4.6,33.9,4.6,52.9c22.3,14.4,40.4,28.8,40.4,67.3v28.8
	c-22.3,77-94.6,0-139.6-9.7c-18.1,0-40.4,4.6-63.1,9.7c-13.5,4.6-26.9,9.7-45,14.4c-26.9,0-53.8,4.6-81.2,4.6
	c-4.6,4.6-8.8,19.5-31.5,33.9c-40.4,0-40.4-14.4-49.6-28.8c-4.6-38.5-8.8-77,18.1-110.9c18.1-24.1,36.2-52.9,53.8-52.9
	c26.9,4.6,53.8,0,81.2-9.7c-13.5-33.9-4.6-48.2,22.3-52.9c4.6-9.7,4.6-24.1,4.6-33.9c0-43.1,13.5-72.4,45-72.4
	C7316.1,8365,7338.4,8374.8,7351.8,8398.9L7351.8,8398.9z"/>
<path fill="#FFFFFF" stroke="#010101" stroke-width="2" stroke-miterlimit="10" d="M7486.8,8673.5c0-19.5,0-48.2-4.6-62.6
	s-31.5-19.5-36.2-33.9c-4.6-19.5,0-43.1-4.6-52.9c-8.8-9.7-45-24.1-49.6-33.9c-4.6-14.4,4.6-28.8,0-38.5
	c-13.5-24.1-26.9-38.5-45-48.2 M7073,8702.3c0-33.9-4.6-72.4,4.6-91.4c9.3-19,45-38.5,49.6-62.6c4.6-24.1,85.4-4.6,98.8-24.1
	c8.8-4.6-4.6-28.8,0-38.5c4.6-9.7,18.1-4.6,26.9-14.4c8.8-14.4-4.6-48.2,4.6-67.3c13.5-33.9,22.3-43.1,45-33.9 M7158.4,8692.5
	c31.5-9.7,90,4.6,112.3-14.4c18.1-14.4,67.3-19.5,94.6-14.4"/>
<path fill="#FFFFFF" stroke="#020202" stroke-width="2" stroke-miterlimit="10" d="M8216.1,8737.5
	c-14.4,54.7-48.2,154.5-125.7,194.4c-48.2,25.1-169.3,25.1-222.2,5.1c-62.6-19.9-111.3-25-149.8-45c-33.9-25-62.6-69.6-77.5-124.8
	c-4.6-79.8-4.6-174.4,9.7-209.2c53.3-109.5,198.1-269.1,261.2-298.8c38.5-14.8,91.9-19.9,145.2,19.9
	c38.5,29.7,120.6,169.3,159.6,274.2C8230.5,8613.2,8220.7,8682.8,8216.1,8737.5z"/>
<path fill="#FFFFFF" stroke="#020202" stroke-width="2" stroke-miterlimit="10" d="M7979,8328.8c33.9,9.7,58,39.9,77.5,69.6
	c19.5,29.7,38.5,64.9,58,94.6c19.5,34.8,29.2,64.9,29.2,99.7c-4.6,29.7-29.2,25.1-53.3,29.7h-62.6c-43.6,5.1-87.2,9.7-130.4,5.1
	c-43.6-5.1-72.4-9.7-96.5,0H7767c-24.1,0-38.5-9.7-29.2-34.8c14.4-39.9,43.6-64.9,77.5-89.5l72.4-59.8c9.7-19.9,19.5-49.6,29.2-69.6
	C7921,8348.8,7945.6,8328.8,7979,8328.8L7979,8328.8z"/>
<path fill="#FFFFFF" stroke="#020202" stroke-width="2" stroke-miterlimit="10" d="M8138.6,8597.9c4.6-34.8-9.7-79.8-24.1-99.7
	c-9.7-19.9-48.2-84.9-72.4-124.8c-14.4-25.1-38.5-39.9-58-39.9 M7800.4,8623c-19.5,5.1-43.6,5.1-58-5.1c-9.7-14.8,0-39.9,9.7-49.6
	c33.9-54.7,116-99.7,135.5-124.8c9.7-9.7,19.5-49.6,38.5-64.9 M7896.9,8623c62.6,9.7,125.7-5.1,193.4-9.7"/>
<path fill="none" stroke="#EFA8AD" stroke-width="40" stroke-miterlimit="10" d="M4126.3,5259.7c91.9-88.1,161.9-101.1,208.8-97.4
	c108.6,8.8,129,112.3,278.3,139.2c76.5,13.9,109.9-6.5,167,27.8c59.4,35.7,62.6,81.2,111.3,97.4c58.5,19.5,116.9-25.1,167-55.7
	c142.9-88.1,304.8-122,403.6-125.3c104.8-3.2,265.4,24.6,403.6,111.3c62.2,39,96,74.7,153.1,69.6c87.2-7.9,92.8-100.2,194.8-139.2
	c103-39,231,3.7,306.2,55.7c64,44.5,67.7,80.7,125.3,97.4c61.7,17.6,101.1-11.1,194.8-41.8c99.7-32.5,257.9-83.5,389.7-27.8
	c84.4,35.7,76.1,80.7,153.1,97.4c61.7,13.5,104.8-7.9,264.4-69.6c163.8-63.6,172.6-91.9,222.7-83.5c50.1,8.4,51.5,33.9,208.8,139.2
	c86.7,58,111.3,67.3,139.2,69.6c37.1,3.2,68.7-5.6,167-55.7c180.9-91.4,179.5-114.1,222.7-111.3c82.6,5.1,85.8,86.3,222.7,139.2
	c33.9,13,86.7,32.9,153.1,27.8c88.6-7,105.8-50.6,222.7-97.4c92.3-37.1,171.6-68.7,250.5-41.8c83.5,28.8,82.6,95.1,180.9,125.3
	c17.2,5.1,82.6,23.2,153.1,0c97.9-32,89.5-105.8,180.9-153.1c95.1-49.6,222.7-31.5,306.2,13.9c88.1,47.8,85.4,103,153.1,111.3
	c0,0,38,4.6,208.8-83.5l0,0c162.4-93.2,282.1-97.4,361.8-83.5c93.2,16.2,241.7,76.1,361.8,139.2c77,40.4,115,67.7,167,55.7
	c91.4-21.8,167-153.1,167-153.1l0,0c0,0,114.1,11.6,194.8-13.9c113.2-36.2,115.5-132.2,194.8-153.1c52.9-13.9,135,7,264.4,153.1"/>
<path fill="none" stroke="#EFA8AD" stroke-width="40" stroke-miterlimit="10" d="M4182,10158.9c64-26,160-52.9,264.4-27.8
	c109.9,26.4,124.8,85.8,222.7,97.4c84.4,10.2,103.4-30.2,306.2-97.4c141.5-46.9,212.5-70,278.3-55.7c103,22.7,112.7,87.2,222.7,97.4
	c68.2,6.5,84.4-16.7,180.9-13.9c77.9,2.3,105.3,18.1,167,27.8c216.2,34.3,416.6-75.2,431.4-83.5c99.7-56.1,119.7-104.8,180.9-97.4
	c71,8.8,73.8,77.5,167,125.3c85.4,43.6,206,49.2,292.3,0c80.3-45.5,89.1-114.1,139.2-111.3c51,2.8,51.5,74.7,125.3,125.3
	c84.4,58,220.4,57.5,306.2,0c76.5-51,77.9-123.9,125.3-125.3c56.6-1.9,61.7,100.7,153.1,167c113.2,81.6,314.5,77,417.5-13.9
	c48.2-42.7,61.2-91.9,111.3-97.4c46.4-5.1,71.4,33.4,125.3,69.6c108.1,72.8,277.9,99.7,389.7,41.8c82.1-42.7,85.4-106.7,153.1-111.3
	c57.5-4.2,71,40.8,167,83.5c43.6,19.5,168.4,74.7,264.4,27.8c77-37.6,69.6-109,139.2-125.3c47.8-11.1,64.5,19,167,55.7
	c86.7,30.6,191.1,68.2,278.3,27.8c48.7-22.3,39.9-45,111.3-83.5c37.6-20.4,92.3-49.6,153.1-41.8c66.8,8.8,68.7,53.8,139.2,83.5
	c45.9,19.5,69.6,10.7,278.3-13.9c164.2-19.5,184.6-18.1,208.8-13.9c96,17.2,108.1,56.1,180.9,55.7c84.9-0.5,96-54.3,194.8-83.5
	c100.7-29.7,192.1-4.2,306.2,27.8c158.2,44.5,163.8,87.7,250.5,83.5c104.4-5.1,130.4-68.7,250.5-97.4
	c101.6-24.1,192.5-4.6,250.5,13.9"/>
</svg>
